SplineFontDB: 3.0
FontName: BoonTone-Bold
FullName: BoonTone Bold
FamilyName: BoonTone
Weight: Bold
Copyright: Copyright (C) 2013 Sungsit Sawaiwan <http://sungsit.com/> \n\nThis font is free software: you can redistribute it and/or modify it under the terms of the GNU General Public License as published by the Free Software Foundation, either version 3 of the License, or (at your option) any later version. \n\nThis font is distributed in the hope that it will be useful, but WITHOUT ANY WARRANTY; without even the implied warranty of MERCHANTABILITY or FITNESS FOR A PARTICULAR PURPOSE. See the GNU General Public License for more details. \n\nYou should have received a copy of the GNU General Public License along with this program. If not, see <http://www.gnu.org/licenses/>. \n\nAs a special exception, if you create a document which uses this font, and embed this font or unaltered portions of this font into the document, this font does not by itself cause the resulting document to be covered by the GNU General Public License. This exception does not however invalidate any other reasons why the document might be covered by the GNU General Public License. If you modify this font, you may extend this exception to your version of the font, but you are not obligated to do so. If you do not wish to do so, delete this exception statement from your version.
UComments: "Created with FontForge 2.0 <http://fontforge.org/>" 
Version: 0.1-alpha
ItalicAngle: 0
UnderlinePosition: -60
UnderlineWidth: 20
Ascent: 860
Descent: 340
woffMajor: 0
woffMinor: 1
LayerCount: 2
Layer: 0 0 "Back"  1
Layer: 1 0 "Fore"  0
FSType: 8
OS2Version: 0
OS2_WeightWidthSlopeOnly: 0
OS2_UseTypoMetrics: 1
CreationTime: 1372665120
ModificationTime: 1373836887
PfmFamily: 33
TTFWeight: 700
TTFWidth: 5
LineGap: 108
VLineGap: 0
Panose: 2 0 8 3 0 0 0 0 0 0
OS2TypoAscent: 0
OS2TypoAOffset: 1
OS2TypoDescent: 0
OS2TypoDOffset: 1
OS2TypoLinegap: 108
OS2WinAscent: 0
OS2WinAOffset: 1
OS2WinDescent: 0
OS2WinDOffset: 1

StartChar: uni0E04
Encoding: 3588 3588 0
Width: 720
VWidth: 0
Flags: W
HStem: 0 21G<70 230 490 650> 220 100<230 400> 488 130<273.239 446.761>
VStem: 70 160<0 220 320 440.758> 490 160<0 440.758>
LayerCount: 2
Fore
SplineSet
650 0 m 5
 490 0 l 5
 490 350 l 6
 490 454 431 488 360 488 c 4
 289 488 230 454 230 350 c 6
 230 320 l 5
 400 320 l 5
 400 220 l 5
 230 220 l 5
 230 0 l 5
 70 0 l 5
 70 380 l 6
 70 556 233 618 360 618 c 4
 487 618 650 556 650 380 c 6
 650 0 l 5
EndSplineSet
EndChar

StartChar: uni0E05
Encoding: 3589 3589 2
Width: 740
VWidth: 0
Flags: W
HStem: 0 21G<70 230 510 670> 220 100<230 400> 598 20G<218 292.472 447.528 522>
VStem: 70 160<0 220 320 474.033> 510 160<0 474.033>
LayerCount: 2
Fore
SplineSet
270 618 m 1
 370 529 l 1
 470 618 l 1
 574 618 670 530 670 390 c 2
 670 0 l 1
 510 0 l 1
 510 360 l 2
 510 416 507 469 470 488 c 1
 370 409 l 1
 270 488 l 1
 233 469 230 416 230 360 c 2
 230 320 l 1
 400 320 l 1
 400 220 l 1
 230 220 l 1
 230 0 l 1
 70 0 l 1
 70 390 l 2
 70 530 166 618 270 618 c 1
EndSplineSet
EndChar

StartChar: uni0E14
Encoding: 3604 3604 3
Width: 758
VWidth: 0
Flags: W
HStem: -18 130<281.71 439.972> 0 21G<528 688> 488 130<274.927 456.74>
VStem: 42 150<203.6 402.069> 528 160<0 415.739>
LayerCount: 2
Fore
SplineSet
360 618 m 0xb8
 564 618 688 485 688 320 c 2
 688 0 l 1
 528 0 l 1x78
 528 0 528 213 528 320 c 0
 528 435 449 488 360 488 c 0
 267 488 192 414 192 300 c 0
 192 186 277 112 370 112 c 0xb8
 401 112 440 125 440 125 c 1
 440 0 l 1x78
 440 0 401 -18 350 -18 c 0
 164 -18 42 124 42 300 c 0
 42 476 174 618 360 618 c 0xb8
EndSplineSet
EndChar

StartChar: uni0E15
Encoding: 3605 3605 4
Width: 768
VWidth: 0
Flags: W
HStem: -18 130<281.71 439.972> 0 21G<528 688> 479 130<262.3 350> 580 20G<505.067 688>
VStem: 42 150<203.6 403.954> 528 160<0 470>
LayerCount: 2
Back
SplineSet
360 618 m 5xac
 528 500 l 5
 578 600 l 5
 688 600 l 5
 688 0 l 5
 528 0 l 5x5c
 528 378 l 5
 360 488 l 5
 267 488 192 414 192 300 c 4
 192 186 277 112 370 112 c 4xac
 401 112 440 125 440 125 c 5
 440 0 l 5x4c
 440 0 401 -18 350 -18 c 4
 164 -18 42 124 42 300 c 4
 42 476 174 618 360 618 c 5xac
EndSplineSet
Fore
SplineSet
350 609 m 1xac
 442 525 l 1
 528 600 l 1
 688 600 l 1
 688 0 l 1
 528 0 l 1x5c
 528 470 l 1
 442 400 l 1
 350 479 l 1
 257 479 192 414 192 300 c 0
 192 186 277 112 370 112 c 0xac
 401 112 440 125 440 125 c 1
 440 0 l 1x4c
 440 0 401 -18 350 -18 c 0
 164 -18 42 124 42 300 c 0
 42 476 164 609 350 609 c 1xac
EndSplineSet
EndChar

StartChar: uni0E01
Encoding: 3585 3585 5
Width: 720
VWidth: 0
Flags: W
HStem: 0 21G<70 230 490 650> 488 130<253.913 446.761>
VStem: 70 160<0 462.875> 490 160<0 440.758>
LayerCount: 2
Fore
SplineSet
360 618 m 4
 487 618 650 556 650 380 c 6
 650 0 l 5
 490 0 l 5
 490 350 l 6
 490 454 431 488 360 488 c 4
 259 488 230 440 230 440 c 5
 230 0 l 5
 70 0 l 5
 70 520 l 5
 70 520 167 618 360 618 c 4
EndSplineSet
EndChar

StartChar: uni0E16
Encoding: 3606 3606 6
Width: 720
VWidth: 0
Flags: W
HStem: -18 21G<276.768 305.797> 0 21G<490 650> 488 130<253.913 446.761>
VStem: 70 160<163.771 462.875> 490 160<0 440.758>
LayerCount: 2
Fore
SplineSet
360 618 m 0xb8
 487 618 650 556 650 380 c 2
 650 0 l 1
 490 0 l 1x78
 490 350 l 2
 490 454 431 488 360 488 c 0
 259 488 230 440 230 440 c 1
 230 440 230 350 230 230 c 0
 230 134 340 120 340 120 c 1
 300 -18 l 1
 300 -18 70 2 70 180 c 0
 70 520 l 1
 70 520 167 618 360 618 c 0xb8
EndSplineSet
EndChar

StartChar: uni0E28
Encoding: 3624 3624 7
Width: 740
VWidth: 0
Flags: W
HStem: 0 21G<70 230 490 650> 220 100<230 400> 488 130<273.239 446.859>
VStem: 70 160<0 220 320 440.758> 490 160<0 444.505>
LayerCount: 2
Fore
SplineSet
635 660 m 1
 720 550 l 1
 629 478 l 1
 642 450 650 418 650 380 c 2
 650 0 l 5
 490 0 l 5
 490 350 l 2
 490 454 431 488 360 488 c 0
 289 488 230 454 230 350 c 2
 230 320 l 1
 400 320 l 1
 400 220 l 1
 230 220 l 1
 230 0 l 1
 70 0 l 1
 70 380 l 2
 70 556 233 618 360 618 c 0
 416 618 478 606 531 578 c 1
 635 660 l 1
EndSplineSet
EndChar

StartChar: uni0E20
Encoding: 3616 3616 8
Width: 720
VWidth: 0
Flags: W
HStem: -18 21G<54.2029 110.5> 0 21G<490 650> 488 130<279.451 453.641>
VStem: 100 160<141.109 465.456> 490 160<0 447.631>
LayerCount: 2
Fore
SplineSet
375 618 m 0xb8
 502 618 650 556 650 380 c 2
 650 0 l 1
 490 0 l 1x78
 490 350 l 2
 490 454 442 488 375 488 c 0
 308 488 260 450 260 450 c 1
 260 180 l 2
 260 2 161 -18 60 -18 c 1
 20 120 l 1
 69 120 100 134 100 230 c 2
 100 520 l 1
 100 520 188 618 375 618 c 0xb8
EndSplineSet
EndChar

StartChar: uni0E48
Encoding: 3656 3656 9
Width: 0
VWidth: 0
Flags: W
HStem: 1000 200<-240 -110>
VStem: -240 130<1000 1200>
LayerCount: 2
Fore
SplineSet
-240 1200 m 5
 -110 1200 l 5
 -110 1000 l 5
 -240 1000 l 5
 -240 1200 l 5
EndSplineSet
Position2: "Nikhahit & Tone High-Left" dx=-220 dy=0 dh=0 dv=0
Position2: "Mai Han-Akat & Tone High-Left" dx=-280 dy=0 dh=0 dv=0
Position2: "Tone High-Left" dx=-180 dy=0 dh=0 dv=0
MultipleSubs2: "Tone High-Low" uni0E48.low
EndChar

StartChar: uni0E34
Encoding: 3636 3636 10
Width: 0
VWidth: 0
Flags: W
HStem: 730 120<-560 -110>
LayerCount: 2
Fore
SplineSet
-560 850 m 5
 -110 850 l 5
 -110 730 l 5
 -560 730 l 5
 -560 850 l 5
EndSplineSet
Substitution2: "Thai Vowel Above-Left for Po Pla" uni0E34.left
Position2: "Vowel Above-Left" dx=-180 dy=0 dh=0 dv=0
EndChar

StartChar: uni0E38
Encoding: 3640 3640 11
Width: 0
VWidth: 0
Flags: W
HStem: -340 250<-230 -89.0637>
VStem: -230 150<-340 -97.4603>
LayerCount: 2
Fore
SplineSet
-260 -90 m 5
 -100 -90 l 5
 -100 -90 -80 -122 -80 -180 c 6
 -80 -340 l 5
 -230 -340 l 5
 -230 -200 l 6
 -230 -143 -260 -90 -260 -90 c 5
EndSplineSet
Position2: "Vowel Below-Low" dx=0 dy=-200 dh=0 dv=0
EndChar

StartChar: uni0E35
Encoding: 3637 3637 12
Width: 0
VWidth: 0
Flags: W
HStem: 710 210<-250 -110> 710 110<-580 -250>
VStem: -250 140<820 920>
LayerCount: 2
Fore
SplineSet
-580 820 m 5x60
 -320 820 l 5
 -250 820 l 5x60
 -250 920 l 5
 -110 920 l 5
 -110 710 l 5xa0
 -580 710 l 5
 -580 820 l 5x60
EndSplineSet
Substitution2: "Thai Vowel Above-Left for Po Pla" uni0E35.left
Position2: "Vowel Above-Left" dx=-180 dy=0 dh=0 dv=0
EndChar

StartChar: uni0E48.low
Encoding: 63237 63237 13
Width: 0
VWidth: 0
Flags: W
HStem: 710 230<-230 -100>
VStem: -230 130<710 940>
LayerCount: 2
Fore
SplineSet
-230 940 m 1
 -100 940 l 1
 -100 710 l 5
 -230 710 l 5
 -230 940 l 1
EndSplineSet
Position2: "Tone Low-Left" dx=-220 dy=0 dh=0 dv=0
Substitution2: "Tone Low-High" uni0E48
EndChar

StartChar: uni0E49.low
Encoding: 63238 63238 14
Width: 0
VWidth: 0
Flags: W
HStem: 710 100<-450 -350 -240 -139.699>
VStem: -350 110<810 930> -110 130<842.326 910>
LayerCount: 2
Back
SplineSet
-220 920 m 5xd0
 -220 920 -220 867 -220 795 c 5
 -205 795 l 6
 -151 795 -124 847 -110 900 c 5
 20 900 l 5
 -12 773 -89 700 -205 700 c 6
 -460 700 l 5
 -460 795 l 5
 -330 795 l 5xb0
 -330 858 -360 920 -360 920 c 5
 -220 920 l 5xd0
EndSplineSet
Fore
SplineSet
-240 930 m 1
 -240 930 -240 882 -240 810 c 1
 -205 810 l 2
 -151 810 -124 837 -110 910 c 1
 20 910 l 1
 -12 763 -89 710 -205 710 c 2
 -450 710 l 5
 -450 810 l 5
 -350 810 l 1
 -350 930 l 1
 -240 930 l 1
EndSplineSet
Substitution2: "Thai Tone for Po Pla" uni0E49
Position2: "Tone Low-Left" dx=-260 dy=0 dh=0 dv=0
Substitution2: "Tone Low-High" uni0E49
EndChar

StartChar: uni0E4A.low
Encoding: 63239 63239 15
Width: 0
VWidth: 0
Flags: W
HStem: 704 80<-435.906 -394> 710 240<-500.25 -404 -280 -171.668>
VStem: -550 110<789.771 874.498> -280 110<805 880> -100 120<833.239 920>
LayerCount: 2
Fore
SplineSet
-394 704 m 1xb8
 -478 704 -550 748 -550 830 c 0
 -550 918 -466 955 -404 955 c 1
 -344 900 l 1
 -284 950 l 1
 -170 950 l 1
 -170 805 l 5
 -134 815 -100 845 -100 920 c 1
 20 920 l 1
 20 778 -88 710 -204 710 c 2
 -280 710 l 1x78
 -280 780 l 1
 -280 880 l 1
 -344 825 l 1
 -404 880 l 1
 -418 875 -440 856 -440 830 c 0
 -440 799 -416 784 -394 784 c 1
 -394 704 l 1xb8
EndSplineSet
Substitution2: "Thai Tone for Po Pla" uni0E4A
Position2: "Tone Low-Left" dx=-260 dy=0 dh=0 dv=0
Substitution2: "Tone Low-High" uni0E4A
EndChar

StartChar: uni0E4B.low
Encoding: 63240 63240 16
Width: 0
VWidth: 0
Flags: W
HStem: 805 70<-320 -225 -115 -20>
VStem: -225 110<710 805 875 970>
LayerCount: 2
Fore
SplineSet
-225 970 m 5
 -115 970 l 5
 -115 875 l 5
 -20 875 l 5
 -20 805 l 5
 -115 805 l 5
 -115 710 l 5
 -225 710 l 5
 -225 805 l 5
 -320 805 l 5
 -320 875 l 5
 -225 875 l 5
 -225 970 l 5
EndSplineSet
Position2: "Tone Low-Left" dx=-260 dy=0 dh=0 dv=0
Substitution2: "Tone Low-High" uni0E4B
EndChar

StartChar: uni0E10.descless
Encoding: 63232 63232 18
Width: 670
VWidth: 0
Flags: W
HStem: -18 21G<289.808 404.5> 508 110<233.42 433.718>
VStem: 410 160<80 296.999>
LayerCount: 2
Back
SplineSet
310 618 m 4
 463 618 580 526 580 420 c 5
 450 420 l 5
 450 475 386 508 310 508 c 4
 242 508 170 478 170 440 c 4
 170 398 217.495 390.812 310 380 c 4
 464 362 540 343 540 210 c 6
 540 60 l 5
 540 60 477 -18 320 -18 c 5
 80 220 l 5
 250 220 l 5
 390 80 l 5
 390 210 l 6
 390 252 371 294 290 300 c 4
 200.969 306.595 50 316 50 440 c 4
 50 524 157 618 310 618 c 4
EndSplineSet
Fore
SplineSet
330 618 m 0
 503 618 610 493 610 430 c 1
 470 430 l 1
 470 461 426 508 330 508 c 0
 241 508 197 460 190 420 c 1
 421 402 570 394 570 270 c 2
 570 60 l 1
 570 60 499 -18 310 -18 c 1
 100 190 l 1
 210 290 l 5
 410 80 l 1
 410 280 l 2
 410 330 40 340 40 340 c 1
 40 502 177 618 330 618 c 0
EndSplineSet
EndChar

StartChar: uni0E0D.descless
Encoding: 63247 63247 19
Width: 1020
VWidth: 0
Flags: W
HStem: -18 130<662.447 771.833> 488 130<254.155 437.235> 580 20G<790 950>
VStem: 70 160<163.771 464> 480 160<132.814 440.758> 790 160<131.612 600>
LayerCount: 2
Fore
SplineSet
355 618 m 0xdc
 482 618 640 556 640 380 c 2
 640 200 l 2
 640 149 672 112 715 112 c 0
 760 112 790 142 790 200 c 2
 790 600 l 1
 950 600 l 1xbc
 950 200 l 2
 950 96 878 -18 715 -18 c 0
 552 -18 480 99 480 200 c 2
 480 350 l 2
 480 454 426 488 355 488 c 0
 254 488 230 440 230 440 c 1
 230 230 l 2
 230 134 340 120 340 120 c 1
 300 -18 l 1
 300 -18 70 2 70 180 c 2
 70 520 l 1
 70 520 162 618 355 618 c 0xdc
EndSplineSet
EndChar

StartChar: uni0E36
Encoding: 3638 3638 20
Width: 0
VWidth: 0
Flags: W
HStem: 710 110<-600 -320> 710 70<-247.563 -174.624> 860 70<-246.66 -173.531>
VStem: -320 70<820 855.249> -170 70<783.531 856.469>
LayerCount: 2
Fore
SplineSet
-210 930 m 4xb8
 -149 930 -100 881 -100 820 c 4xb8
 -100 759 -149 710 -210 710 c 6x78
 -600 710 l 5
 -600 820 l 5
 -410 820 l 5
 -320 820 l 5
 -320 830 l 5
 -315 886 -267 930 -210 930 c 4xb8
-210 860 m 4
 -232 860 -250 842 -250 820 c 4xb8
 -250 798 -232 780 -210 780 c 4x78
 -188 780 -170 798 -170 820 c 4
 -170 842 -188 860 -210 860 c 4
EndSplineSet
Substitution2: "Thai Vowel Above-Left for Po Pla" uni0E36.left
Position2: "Vowel Above-Left" dx=-180 dy=0 dh=0 dv=0
EndChar

StartChar: uni0E37
Encoding: 3639 3639 21
Width: 0
VWidth: 0
Flags: W
HStem: 710 210<-400 -280 -230 -110> 710 110<-580 -400>
VStem: -400 120<820 920> -230 120<710 920>
LayerCount: 2
Fore
SplineSet
-400 920 m 5xb0
 -280 920 l 5
 -280 710 l 5xb0
 -580 710 l 5
 -580 820 l 5
 -440 820 l 5
 -400 820 l 5x70
 -400 920 l 5xb0
-230 920 m 5
 -110 920 l 5
 -110 710 l 5
 -230 710 l 5
 -230 920 l 5
EndSplineSet
Substitution2: "Thai Vowel Above-Left for Po Pla" uni0E37.left
Position2: "Vowel Above-Left" dx=-180 dy=0 dh=0 dv=0
EndChar

StartChar: uni0E2D
Encoding: 3629 3629 22
Width: 720
VWidth: 0
Flags: W
HStem: -18 130<271.113 441.659> 220 100<208 302> 488 130<269.231 441.659>
VStem: 528 150<203.869 396.131>
LayerCount: 2
Fore
SplineSet
360 618 m 4
 536 618 678 476 678 300 c 4
 678 124 536 -18 360 -18 c 4
 184 -18 42 124 42 300 c 6
 42 320 l 5
 302 320 l 5
 302 220 l 5
 208 220 l 5
 226 156 283 112 360 112 c 4
 453 112 528 196 528 300 c 4
 528 404 453 488 360 488 c 4
 290 488 239 453 218 400 c 5
 58 400 l 5
 90 527 219 618 360 618 c 4
EndSplineSet
EndChar

StartChar: uni0E4D
Encoding: 3661 3661 23
Width: 0
VWidth: 0
Flags: W
HStem: 670 85<-248.756 -161.244> 855 85<-248.756 -161.244>
VStem: -340 85<761.244 848.756> -155 85<761.244 848.756>
LayerCount: 2
Fore
SplineSet
-205 940 m 0
 -130 940 -70 880 -70 805 c 0
 -70 730 -130 670 -205 670 c 0
 -280 670 -340 730 -340 805 c 0
 -340 880 -280 940 -205 940 c 0
-205 855 m 0
 -233 855 -255 833 -255 805 c 0
 -255 777 -233 755 -205 755 c 0
 -177 755 -155 777 -155 805 c 0
 -155 833 -177 855 -205 855 c 0
EndSplineSet
Position2: "Vowel Above-Left" dx=-220 dy=0 dh=0 dv=0
EndChar

StartChar: uni0E32
Encoding: 3634 3634 25
Width: 590
VWidth: 0
Flags: W
HStem: 0 21G<350 510> 488 130<212.823 327.659>
VStem: 350 160<0 467.153>
LayerCount: 2
Fore
SplineSet
350 0 m 1
 350 374 l 6
 350 462 315 488 270 488 c 4
 227 488 195 457 195 406 c 5
 30 406 l 5
 30 507 107 618 270 618 c 4
 433 618 510 505 510 374 c 6
 510 0 l 1
 350 0 l 1
EndSplineSet
Substitution2: "Sara AA Substitute" uni0E45
EndChar

StartChar: uni0E25
Encoding: 3621 3621 26
Width: 700
VWidth: 0
Flags: W
HStem: -18 120<255.56 350> 0 21G<480 630> 498 120<269.299 454.664>
VStem: 60 160<134.681 224.643> 480 150<0 275 383.359 469.395>
LayerCount: 2
Fore
SplineSet
360 618 m 4xb8
 513 618 630 524 630 430 c 6
 630 0 l 5
 480 0 l 5x78
 480 275 l 5
 440 263 400 257 370 255 c 4
 296 249 220 238 220 180 c 4
 220 129 288 102 350 102 c 5
 350 -18 l 5
 203 -18 60 38 60 180 c 4
 60 323 247 354 350 360 c 4
 443 365 480 388 480 430 c 4
 480 468 428 498 360 498 c 4
 284 498 240 465 240 410 c 5
 80 410 l 5
 80 530 207 618 360 618 c 4xb8
EndSplineSet
EndChar

StartChar: uni0E40
Encoding: 3648 3648 27
Width: 320
VWidth: 0
Flags: W
HStem: 0 21G<80 240> 580 20G<80 240>
VStem: 80 160<0 600>
LayerCount: 2
Fore
SplineSet
80 600 m 1
 240 600 l 1
 240 0 l 1
 80 0 l 1
 80 600 l 1
EndSplineSet
EndChar

StartChar: uni0E2A
Encoding: 3626 3626 29
Width: 730
VWidth: 0
Flags: W
HStem: -18 120<255.56 350> 0 21G<480 630> 498 120<269.299 454.136>
VStem: 60 160<134.681 224.643> 480 150<0 275 383.359 472.17>
LayerCount: 2
Fore
SplineSet
615 660 m 5xb8
 700 550 l 1
 617 484 l 1
 626 467 630 448 630 430 c 2
 630 0 l 1
 480 0 l 1x78
 480 275 l 1
 440 263 400 257 370 255 c 0
 296 249 220 238 220 180 c 0
 220 129 288 102 350 102 c 1
 350 -18 l 1
 203 -18 60 38 60 180 c 0
 60 323 247 354 350 360 c 0
 443 365 480 388 480 430 c 0
 480 468 428 498 360 498 c 0
 284 498 240 465 240 410 c 1
 80 410 l 1
 80 530 207 618 360 618 c 0
 419 618 472 604 516 582 c 1
 615 660 l 5xb8
EndSplineSet
EndChar

StartChar: uni0E2E
Encoding: 3630 3630 30
Width: 750
VWidth: 0
Flags: W
HStem: -18 130<271.113 441.659> 220 100<208 302> 488 130<269.231 444.104>
VStem: 528 150<203.869 399.208>
LayerCount: 2
Fore
SplineSet
645 660 m 1
 730 550 l 1
 629 470 l 1
 660 421 678 363 678 300 c 0
 678 124 536 -18 360 -18 c 0
 184 -18 42 124 42 300 c 2
 42 320 l 1
 302 320 l 1
 302 220 l 1
 208 220 l 1
 226 156 283 112 360 112 c 0
 453 112 528 196 528 300 c 0
 528 404 453 488 360 488 c 0
 290 488 239 453 218 400 c 1
 58 400 l 1
 90 527 219 618 360 618 c 0
 422 618 481 600 530 569 c 1
 645 660 l 1
EndSplineSet
EndChar

StartChar: uni0E1D
Encoding: 3613 3613 31
Width: 822
VWidth: 0
Flags: W
HStem: -18 21G<237 334.135 505.865 579> 486 120<283.077 429.995> 840 20G<582 742>
VStem: 42 160<188.444 401.154> 582 160<95 860>
LayerCount: 2
Fore
SplineSet
350 606 m 0
 423 606 430 588 430 588 c 1
 430 473 l 1
 430 473 425 486 370 486 c 0
 277 486 202 414 202 300 c 0
 202 214 232 164 277 135 c 1
 367 320 l 1
 472 320 l 1
 582 95 l 1
 582 860 l 1
 742 860 l 1
 742 48 l 1
 742 48 643 -18 515 -18 c 1
 420 190 l 1
 325 -18 l 1
 149 -18 42 124 42 300 c 0
 42 476 164 606 350 606 c 0
EndSplineSet
EndChar

StartChar: uni0E1A
Encoding: 3610 3610 32
Width: 720
VWidth: 0
Flags: W
HStem: -18 130<273.239 446.761> 580 20G<70 230 490 650>
VStem: 70 160<159.242 600> 490 160<159.242 600>
LayerCount: 2
Fore
SplineSet
70 600 m 1
 230 600 l 1
 230 250 l 2
 230 146 289 112 360 112 c 0
 431 112 490 146 490 250 c 2
 490 600 l 1
 650 600 l 1
 650 220 l 2
 650 44 487 -18 360 -18 c 0
 233 -18 70 44 70 220 c 2
 70 600 l 1
EndSplineSet
EndChar

StartChar: uni0E1B
Encoding: 3611 3611 33
Width: 720
VWidth: 0
Flags: W
HStem: -18 130<273.239 446.761> 580 20G<70 230> 840 20G<490 650>
VStem: 70 160<159.242 600> 490 160<159.242 860>
LayerCount: 2
Fore
SplineSet
70 600 m 1
 230 600 l 1
 230 250 l 2
 230 146 289 112 360 112 c 0
 431 112 490 146 490 250 c 2
 490 860 l 5
 650 860 l 5
 650 220 l 2
 650 44 487 -18 360 -18 c 0
 233 -18 70 44 70 220 c 2
 70 600 l 1
EndSplineSet
EndChar

StartChar: uni0E49
Encoding: 3657 3657 34
Width: 0
VWidth: 0
Flags: W
HStem: 990 190<-320 -220> 990 80<-420 -320 -220 -153.504>
VStem: -320 100<1070 1180> -110 130<1115.37 1180>
LayerCount: 2
Fore
SplineSet
-220 1180 m 1xb0
 -220 1180 -220 1130 -220 1070 c 1
 -205 1070 l 2x70
 -151 1070 -124 1127 -110 1180 c 1
 20 1180 l 1xb0
 -12 1053 -89 990 -205 990 c 2
 -420 990 l 5
 -420 1070 l 5
 -320 1070 l 1x70
 -320 1121 -320 1180 -320 1180 c 1
 -220 1180 l 1xb0
EndSplineSet
Position2: "Thai Tone Low for Po Pla" dx=-260 dy=-280 dh=0 dv=0
Position2: "Nikhahit & Tone High-Left" dx=-180 dy=0 dh=0 dv=0
Position2: "Mai Han-Akat & Tone High-Left" dx=-220 dy=0 dh=0 dv=0
Position2: "Tone High-Left" dx=-120 dy=0 dh=0 dv=0
MultipleSubs2: "Tone High-Low" uni0E49.low
EndChar

StartChar: uni0E1C
Encoding: 3612 3612 35
Width: 822
VWidth: 0
Flags: W
HStem: -18 21G<237 334.135 505.865 579> 486 120<283.077 429.995>
VStem: 42 160<188.444 401.154> 582 160<95 600>
LayerCount: 2
Back
SplineSet
340 609 m 0
 413 609 430 591 430 591 c 1
 430 476 l 1
 430 476 415 489 360 489 c 0
 267 489 202 414 202 300 c 0
 202 214 227 159 282 135 c 1
 387 340 l 1
 467 340 l 1
 562 130 l 1
 642 600 l 1
 792 600 l 1
 682 0 l 1
 522 0 l 1
 427 200 l 1
 322 -9 l 1
 146 -9 42 124 42 300 c 0
 42 476 154 609 340 609 c 0
EndSplineSet
Fore
SplineSet
350 606 m 0
 423 606 430 588 430 588 c 1
 430 473 l 1
 430 473 425 486 370 486 c 0
 277 486 202 414 202 300 c 0
 202 214 232 164 277 135 c 1
 367 320 l 1
 472 320 l 1
 582 95 l 1
 582 600 l 1
 742 600 l 1
 742 48 l 5
 742 48 643 -18 515 -18 c 1
 420 190 l 1
 325 -18 l 1
 149 -18 42 124 42 300 c 0
 42 476 164 606 350 606 c 0
EndSplineSet
EndChar

StartChar: uni0E1F
Encoding: 3615 3615 37
Width: 890
VWidth: 0
Flags: W
HStem: 0 21G<175 359.857 510.714 723.256> 580 20G<30 204.286 380.476 499.524> 840 20G<696.765 860>
LayerCount: 2
Fore
SplineSet
30 600 m 1
 200 600 l 1
 290 180 l 1
 385 600 l 1
 495 600 l 1
 590 180 l 1
 700 860 l 5
 860 860 l 5
 720 0 l 1
 515 0 l 1
 440 350 l 1
 355 0 l 1
 180 0 l 1
 30 600 l 1
EndSplineSet
EndChar

StartChar: uni0E43
Encoding: 3651 3651 39
Width: 380
VWidth: 0
Flags: W
HStem: 0 21G<140 300> 990 110<158.204 241.796>
VStem: 10 140<920 983.376> 140 160<0 763.486> 250 140<845.27 983.544>
LayerCount: 2
Fore
SplineSet
200 1100 m 0xe8
 299 1100 390 1043 390 920 c 0xe8
 390 822 300 780 300 690 c 6
 300 0 l 1
 140 0 l 1
 140 650 l 6xd0
 140 810 250 821 250 920 c 0
 250 965 236 990 200 990 c 0
 164 990 150 963 150 920 c 1
 10 920 l 1
 10 1034 101 1100 200 1100 c 0xe8
EndSplineSet
EndChar

StartChar: uni0E44
Encoding: 3652 3652 40
Width: 360
VWidth: 0
Flags: W
HStem: 0 21G<110 270> 980 100<0 240>
VStem: 110 160<0 849.152>
LayerCount: 2
Fore
SplineSet
0 980 m 1
 0 1080 l 1
 30 1080 l 1
 140 1080 l 1
 250 1080 l 1
 380 1080 l 1
 380 1010 l 1
 380 1010 270 906 270 800 c 2
 270 0 l 1
 110 0 l 1
 110 770 l 2
 110 862 240 980 240 980 c 5
 0 980 l 1
EndSplineSet
EndChar

StartChar: uni0E29
Encoding: 3625 3625 41
Width: 760
VWidth: 0
Flags: W
HStem: -18 130<273.239 446.761> 270 100<330 490 650 730> 580 20G<70 230 490 650>
VStem: 70 160<159.242 600> 490 160<159.242 270 370 600>
LayerCount: 2
Fore
SplineSet
70 600 m 1
 230 600 l 1
 230 250 l 2
 230 146 289 112 360 112 c 0
 431 112 490 146 490 250 c 2
 490 270 l 1
 330 270 l 1
 330 370 l 1
 490 370 l 1
 490 600 l 1
 650 600 l 1
 650 370 l 1
 730 370 l 1
 730 270 l 1
 650 270 l 1
 650 220 l 2
 650 44 487 -18 360 -18 c 0
 233 -18 70 44 70 220 c 2
 70 600 l 1
EndSplineSet
EndChar

StartChar: uni0E42
Encoding: 3650 3650 42
Width: 360
VWidth: 0
Flags: W
HStem: 0 21G<110 270> 970 110<170 420>
VStem: 110 160<0 867.819>
LayerCount: 2
Fore
SplineSet
30 1080 m 1
 420 1080 l 5
 420 970 l 5
 170 970 l 1
 170 970 270 872 270 780 c 2
 270 0 l 1
 110 0 l 1
 110 810 l 2
 110 916 30 1010 30 1010 c 1
 30 1080 l 1
EndSplineSet
EndChar

StartChar: uni0E06
Encoding: 3590 3590 44
Width: 740
VWidth: 0
Flags: W
HStem: -18 130<336.653 459.685> 0 21G<90 250> 500 100<40 75>
VStem: 90 160<0 110 157.849 297.88> 265 115<416.948 500> 510 160<164.377 600>
LayerCount: 2
Back
SplineSet
90 618 m 5x78
 205 520 l 5
 320 618 l 5
 390 515 l 5
 390 515 285 453 285 400 c 6
 285 280 l 6
 285 181 347 112 410 112 c 4
 468 112 530 144 530 252 c 6
 530 600 l 5
 690 600 l 5
 690 214 l 6
 690 53 590 -18 470 -18 c 4xb8
 345 -18 296 74 285 110 c 5
 285 0 l 5
 125 0 l 5
 125 420 l 5
 20 515 l 5
 90 618 l 5x78
EndSplineSet
Fore
SplineSet
40 600 m 1x7c
 75 600 l 1
 170 540 l 1
 265 600 l 1
 380 600 l 1
 380 490 l 1
 380 380 l 1
 380 380 250 334 250 230 c 0
 250 156 316 112 380 112 c 0
 438 112 510 144 510 252 c 2
 510 600 l 1
 670 600 l 1
 670 214 l 2
 670 53 565 -18 440 -18 c 0xbc
 310 -18 266 74 250 110 c 1
 250 0 l 1
 90 0 l 1
 90 210 l 2
 90 349 265 430 265 430 c 1
 265 500 l 1
 170 440 l 1
 75 500 l 1
 40 500 l 1
 40 600 l 1x7c
EndSplineSet
EndChar

StartChar: uni0E31
Encoding: 3633 3633 45
Width: 0
VWidth: 0
Flags: W
HStem: 700 100<-258.243 -108.817> 850 60<-275 -235>
VStem: -80 130<829.163 900>
LayerCount: 2
Back
SplineSet
-410 900 m 5
 -280 900 l 5
 -280 840 -242 800 -180 800 c 4
 -118 800 -80 840 -80 900 c 5
 50 900 l 5
 33 747 -69 700 -180 700 c 4
 -291 700 -393 747 -410 900 c 5
EndSplineSet
Fore
SplineSet
-410 910 m 1
 -235 910 l 5
 -235 850 l 5
 -275 850 l 1
 -263 816 -228 800 -180 800 c 0
 -118 800 -80 840 -80 900 c 1
 50 900 l 1
 33 757 -69 700 -180 700 c 0
 -291 700 -403 747 -410 900 c 1
 -410 910 l 1
EndSplineSet
Substitution2: "Thai Vowel Above-Left for Po Pla" uni0E31.left
Position2: "Vowel Above-Left" dx=-320 dy=0 dh=0 dv=0
EndChar

StartChar: uni0E4C
Encoding: 3660 3660 46
Width: 0
VWidth: 0
Flags: W
HStem: 930 270
VStem: -340 160<930.016 1031.83> -180 140<1127.24 1200>
LayerCount: 2
Fore
SplineSet
-180 1200 m 5xa0
 -40 1200 l 5xa0
 -40 1053 -180 1057 -180 989 c 0
 -180 950 -160 930 -160 930 c 1
 -320 930 l 1
 -320 930 -340 953 -340 989 c 0xc0
 -340 1089 -180 1072 -180 1200 c 5xa0
EndSplineSet
Position2: "Tone High-Left" dx=-100 dy=0 dh=0 dv=0
MultipleSubs2: "Tone High-Low" uni0E4C.low
EndChar

StartChar: uni0E39
Encoding: 3641 3641 47
Width: 0
VWidth: 0
Flags: W
HStem: -352 100<-352.676 -227.324>
VStem: -500 140<-241.42 -97.6154> -220 140<-241.42 -90>
LayerCount: 2
Fore
SplineSet
-380 -90 m 5
 -380 -90 -360 -119 -360 -175 c 6
 -360 -210 l 5
 -359 -236 -320 -252 -290 -252 c 4
 -260 -252 -221 -236 -220 -210 c 5
 -220 -90 l 5
 -80 -90 l 5
 -80 -250 l 6
 -80 -315 -176 -352 -290 -352 c 4
 -404 -352 -500 -315 -500 -250 c 4
 -500 -230 -500 -220 -500 -200 c 4
 -500 -147 -530 -90 -530 -90 c 5
 -380 -90 l 5
EndSplineSet
Position2: "Vowel Below-Low" dx=0 dy=-200 dh=0 dv=0
EndChar

StartChar: uni0E03
Encoding: 3587 3587 48
Width: 680
VWidth: 0
Flags: W
HStem: -18 130<273.157 413.719> 500 100<30 65>
VStem: 80 160<147.239 298.12> 255 115<416.948 500> 450 160<152.369 600>
LayerCount: 2
Back
SplineSet
30 515 m 5
 90 618 l 5
 215 520 l 5
 340 618 l 5
 400 515 l 5
 400 515 230 394 230 240 c 4
 230 146 291 112 340 112 c 4
 389 112 450 136 450 230 c 6
 450 600 l 5
 610 600 l 5
 610 220 l 6
 610 44 467 -18 340 -18 c 4
 213 -18 70 54 70 230 c 4
 70 348 150 420 150 420 c 5
 30 515 l 5
EndSplineSet
Fore
SplineSet
30 600 m 1
 65 600 l 1
 160 540 l 1
 255 600 l 1
 370 600 l 1
 370 490 l 1
 370 380 l 1
 370 380 240 329 240 220 c 0
 240 146 291 112 340 112 c 0
 389 112 450 136 450 230 c 2
 450 600 l 1
 610 600 l 1
 610 220 l 2
 610 44 467 -18 340 -18 c 0
 213 -18 80 54 80 210 c 0
 80 349 255 430 255 430 c 1
 255 500 l 1
 160 440 l 1
 65 500 l 1
 30 500 l 1
 30 600 l 1
EndSplineSet
EndChar

StartChar: uni0E22
Encoding: 3618 3618 49
Width: 730
VWidth: 0
Flags: W
HStem: -18 130<265.126 486.914> 290 100<243.544 398> 496 110<227.824 372.43>
VStem: 60 160<154.247 265.772> 80 140<412.586 487.133> 490 160<127.963 600>
LayerCount: 2
Back
SplineSet
350 609 m 4xe8
 391 609 400 601 400 601 c 5
 400 476 l 5
 400 476 393 479 370 479 c 4xe8
 298 479 220 443 194 370 c 5
 400 370 l 5
 400 270 l 5
 184 270 l 5
 196 173 275 102 360 102 c 4
 461 102 490 140 490 140 c 5
 490 600 l 5
 650 600 l 5xd8
 650 80 l 5
 650 80 553 -18 360 -18 c 4
 154 -18 42 124 42 300 c 4
 42 476 164 609 350 609 c 4xe8
EndSplineSet
Fore
SplineSet
280 606 m 0xec
 357 606 410 572 410 572 c 1
 361 477 l 1
 361 477 334 496 290 496 c 0
 245 496 220 477 220 447 c 0xec
 220 417 275 390 330 390 c 2
 398 390 l 1
 398 290 l 1
 330 290 l 2
 269 290 220 265 220 210 c 0
 220 155 279 112 360 112 c 0
 451 112 490 140 490 140 c 1
 490 600 l 1
 650 600 l 1
 650 60 l 1
 650 60 553 -18 360 -18 c 0
 181 -18 60 78 60 200 c 0xf4
 60 262 92 318 142 348 c 1
 113 367 80 395 80 453 c 0
 80 549 167 606 280 606 c 0xec
EndSplineSet
EndChar

StartChar: uni0E46
Encoding: 3654 3654 50
Width: 630
VWidth: 0
Flags: W
HStem: 580 20G<50 136.25 353.75 510>
VStem: 250 160<-340 226.474> 390 120<372.835 470>
LayerCount: 2
Back
SplineSet
510 -340 m 5
 350 -340 l 5
 350 470 l 5
 230 380 l 5
 110 470 l 5
 50 470 l 5
 50 600 l 5
 120 600 l 5
 230 510 l 5
 340 600 l 5
 510 600 l 5
 510 -340 l 5
EndSplineSet
Fore
SplineSet
250 120 m 6xc0
 250 259 390 400 390 400 c 5
 390 470 l 5
 245 390 l 5
 100 470 l 5
 50 470 l 5
 50 600 l 5
 100 600 l 5
 245 520 l 5
 390 600 l 5
 510 600 l 5
 510 460 l 5
 510 350 l 5xa0
 510 350 410 229 410 120 c 6
 410 -340 l 5
 250 -340 l 5
 250 120 l 6xc0
EndSplineSet
EndChar

StartChar: uni0E47
Encoding: 3655 3655 51
Width: 0
VWidth: 0
Flags: W
HStem: 700 160<-270 -150> 700 70<-290 -270> 905 90<-468.518 -215.72>
VStem: -600 120<770 891.414> -270 120<770 860> -200 120<1008.36 1070>
LayerCount: 2
Fore
SplineSet
-200 1070 m 5x74
 -80 1070 l 5x74
 -80 985 -128 905 -220 905 c 6
 -410 905 l 6
 -458 905 -480 879 -480 840 c 6
 -480 770 l 5
 -385 865 l 5
 -290 770 l 5
 -270 770 l 5x78
 -270 860 l 5
 -150 860 l 5
 -150 700 l 5xb8
 -330 700 l 5
 -385 760 l 5
 -440 700 l 5
 -600 700 l 5
 -600 840 l 6
 -600 930 -512 995 -430 995 c 6
 -260 995 l 6
 -217 995 -200 1031 -200 1070 c 5x74
EndSplineSet
Substitution2: "Thai Vowel Above-Left for Po Pla" uni0E47.left
Position2: "Vowel Above-Left" dx=-160 dy=0 dh=0 dv=0
EndChar

StartChar: uni0E0B
Encoding: 3595 3595 52
Width: 750
VWidth: 0
Flags: W
HStem: -18 130<304.471 483.415> 580 20G<20 80 220 360>
VStem: 140 160<126.656 385.565> 530 160<160.011 311.357>
LayerCount: 2
Back
SplineSet
615 670 m 5
 710 560 l 5
 560 425 l 5
 560 425 680 379 680 230 c 4
 680 54 537 -18 410 -18 c 4
 283 -18 125 44 125 220 c 6
 125 420 l 5
 20 515 l 5
 90 618 l 5
 205 520 l 5
 320 618 l 5
 390 515 l 5
 390 515 285 453 285 400 c 6
 285 230 l 6
 285 136 361 112 410 112 c 4
 459 112 520 146 520 240 c 4
 520 359 370 435 370 435 c 5
 615 670 l 5
EndSplineSet
Fore
SplineSet
620 660 m 1
 710 550 l 1
 540 415 l 1
 540 415 690 379 690 230 c 0
 690 54 537 -18 410 -18 c 0
 217 -18 140 60 140 60 c 1
 140 123 140 237 140 300 c 4
 140 398 256 500 256 500 c 1
 150 440 l 1
 45 500 l 1
 20 500 l 1
 20 600 l 1
 45 600 l 1
 150 540 l 1
 255 600 l 1
 360 600 l 1
 360 530 l 1
 360 530 300 455 300 360 c 0
 300 273 300 227 300 140 c 1
 300 140 334 112 410 112 c 0
 459 112 530 146 530 240 c 0
 530 359 335 425 335 425 c 1
 620 660 l 1
EndSplineSet
EndChar

StartChar: uni0E02
Encoding: 3586 3586 53
Width: 660
VWidth: 0
Flags: W
HStem: -18 130<252.304 393.719> 598 2G<125.714 168.777 430 590>
VStem: 50 160<154.198 337.88> 430 160<152.369 600>
LayerCount: 2
Fore
SplineSet
55 499 m 1
 140 618 l 1
 340 479 l 1
 340 479 210 359 210 240 c 0
 210 146 271 112 320 112 c 0
 369 112 430 136 430 230 c 2
 430 600 l 1
 590 600 l 1
 590 220 l 2
 590 44 447 -18 320 -18 c 0
 193 -18 50 54 50 230 c 0
 50 379 160 429 160 429 c 1
 55 499 l 1
EndSplineSet
EndChar

StartChar: uni0E0A
Encoding: 3594 3594 54
Width: 700
VWidth: 0
Flags: W
HStem: -18 130<232.931 433.415> 580 20G<70 230>
VStem: 70 160<127.311 600> 480 160<160.011 311.357>
LayerCount: 2
Back
SplineSet
220 600 m 5
 220 230 l 6
 220 136 291 112 340 112 c 4
 389 112 460 146 460 240 c 4
 460 359 265 435 265 435 c 5
 545 670 l 5
 640 560 l 5
 470 425 l 5
 470 425 620 379 620 230 c 4
 620 54 467 -18 340 -18 c 4
 213 -18 60 44 60 220 c 6
 60 600 l 5
 220 600 l 5
EndSplineSet
Fore
SplineSet
570 660 m 1
 660 550 l 1
 490 415 l 1
 490 415 640 379 640 230 c 4
 640 54 487 -18 360 -18 c 0
 167 -18 70 60 70 60 c 1
 70 600 l 1
 230 600 l 1
 230 140 l 1
 230 140 264 112 360 112 c 0
 409 112 480 146 480 240 c 4
 480 359 285 425 285 425 c 1
 570 660 l 1
EndSplineSet
EndChar

StartChar: uni0E07
Encoding: 3591 3591 57
Width: 610
VWidth: 0
Flags: W
HStem: -18 21G<255.799 358> 589 20G<283.846 378>
VStem: 410 150<198.369 400.658>
LayerCount: 2
Fore
SplineSet
250 479 m 1
 290 609 l 1
 466 609 560 476 560 300 c 0
 560 124 446 -18 270 -18 c 1
 30 320 l 1
 145 405 l 1
 330 136 l 1
 370 166 410 219 410 300 c 0
 410 399 348 479 250 479 c 1
EndSplineSet
EndChar

StartChar: uni0E0E
Encoding: 3598 3598 58
Width: 720
VWidth: 0
Flags: W
HStem: -340 120<90 490> -18 21G<54.2029 110.5> 488 130<279.451 453.641>
VStem: 100 160<141.109 465.456> 490 160<-220 447.631>
LayerCount: 2
Fore
SplineSet
375 618 m 0
 502 618 650 556 650 380 c 2
 650 -340 l 1
 510 -340 l 1
 510 -340 430 -340 350 -340 c 2
 90 -340 l 1
 90 -220 l 1
 350 -220 l 2
 490 -220 l 1
 490 350 l 2
 490 454 442 488 375 488 c 0
 308 488 260 450 260 450 c 1
 260 180 l 2
 260 2 161 -18 60 -18 c 1
 20 120 l 1
 69 120 100 134 100 230 c 2
 100 520 l 1
 100 520 188 618 375 618 c 0
EndSplineSet
Substitution2: "Descent Shorten" uni0E0E.shorten
EndChar

StartChar: uni0E2B
Encoding: 3627 3627 59
Width: 720
VWidth: 0
Flags: W
HStem: 0 21G<80 240 500 660> 320 110<240 441.705> 580 20G<80 240 500 660>
VStem: 80 160<0 320 430 600> 500 160<0 264.692 497 600>
LayerCount: 2
Fore
SplineSet
80 600 m 1
 240 600 l 1
 240 430 l 1
 370 430 l 2
 477 430 500 552 500 600 c 1
 660 600 l 1
 660 514 639 445 580 370 c 1
 621 332 660 288 660 208 c 2
 660 0 l 1
 500 0 l 1
 500 170 l 2
 500 278 428 320 370 320 c 0
 240 320 l 1
 240 0 l 1
 80 0 l 1
 80 600 l 1
EndSplineSet
EndChar

StartChar: uni0E3A
Encoding: 3642 3642 60
Width: 0
VWidth: 0
Flags: W
HStem: -280 200<-247.544 -112.456>
VStem: -280 200<-247.544 -112.456>
LayerCount: 2
Fore
SplineSet
-80 -180 m 4
 -80 -236 -124 -280 -180 -280 c 4
 -236 -280 -280 -236 -280 -180 c 4
 -280 -124 -236 -80 -180 -80 c 4
 -124 -80 -80 -124 -80 -180 c 4
EndSplineSet
Position2: "Vowel Below-Low" dx=0 dy=-200 dh=0 dv=0
EndChar

StartChar: uni0E53
Encoding: 3667 3667 61
Width: 802
VWidth: 0
Flags: W
HStem: -9 140<266.033 419.995> 0 21G<562 722> 589 20G<244 339.763 503.324 560>
VStem: 42 160<197.628 416.789> 562 160<0 470>
LayerCount: 2
Fore
SplineSet
340 -9 m 4xb8
 154 -9 42 124 42 300 c 4
 42 476 156 609 332 609 c 5
 417 390 l 5
 512 609 l 5
 608 609 722 540 722 540 c 5
 722 0 l 5
 562 0 l 5x78
 562 470 l 5
 457 230 l 5
 377 230 l 5
 282 465 l 5
 227 441 202 386 202 300 c 4
 202 186 267 131 360 131 c 4
 415 131 420 144 420 144 c 5
 420 9 l 5
 420 9 413 -9 340 -9 c 4xb8
EndSplineSet
EndChar

StartChar: uni0E24
Encoding: 3620 3620 62
Width: 720
VWidth: 0
Flags: W
HStem: -18 21G<276.768 305.797> 488 130<253.913 446.761>
VStem: 70 160<163.771 462.875> 490 160<-340 440.758>
LayerCount: 2
Fore
SplineSet
360 618 m 0
 487 618 650 556 650 380 c 2
 650 -340 l 1
 490 -340 l 1
 490 350 l 2
 490 454 431 488 360 488 c 0
 259 488 230 440 230 440 c 1
 230 440 230 350 230 230 c 0
 230 134 340 120 340 120 c 1
 300 -18 l 1
 300 -18 70 2 70 180 c 0
 70 520 l 1
 70 520 167 618 360 618 c 0
EndSplineSet
EndChar

StartChar: uni0E26
Encoding: 3622 3622 63
Width: 720
VWidth: 0
Flags: W
HStem: -18 21G<54.2029 110.5> 488 130<279.451 453.641>
VStem: 100 160<141.109 465.456> 490 160<-340 447.631>
LayerCount: 2
Fore
SplineSet
375 618 m 0
 502 618 650 556 650 380 c 2
 650 -340 l 1
 490 -340 l 1
 490 350 l 2
 490 454 442 488 375 488 c 0
 308 488 260 450 260 450 c 1
 260 180 l 2
 260 2 161 -18 60 -18 c 1
 20 120 l 1
 69 120 100 134 100 230 c 2
 100 520 l 1
 100 520 188 618 375 618 c 0
EndSplineSet
EndChar

StartChar: uni0E45
Encoding: 3653 3653 64
Width: 315
VWidth: 0
Flags: W
HStem: 488 130<-55.0276 62.6587>
VStem: 85 160<-340 467.153>
LayerCount: 2
Fore
SplineSet
85 -340 m 1
 85 374 l 2
 85 462 50 488 5 488 c 0
 -38 488 -80 457 -80 406 c 1
 -235 406 l 1
 -235 507 -158 618 5 618 c 0
 168 618 245 505 245 374 c 2
 245 -340 l 1
 85 -340 l 1
EndSplineSet
EndChar

StartChar: uni0E27
Encoding: 3623 3623 66
Width: 690
VWidth: 0
Flags: W
HStem: -18 130<245.279 411.659> 488 130<245.279 411.659>
VStem: 498 150<203.869 396.131>
LayerCount: 2
Fore
SplineSet
330 -18 m 0
 189 -18 64 73 32 200 c 1
 193 200 l 1
 212 147 270 112 330 112 c 0
 423 112 498 196 498 300 c 0
 498 404 423 488 330 488 c 0
 270 488 212 453 193 400 c 1
 32 400 l 1
 64 527 189 618 330 618 c 0
 506 618 648 476 648 300 c 0
 648 124 506 -18 330 -18 c 0
EndSplineSet
EndChar

StartChar: uni0E2C
Encoding: 3628 3628 68
Width: 860
VWidth: 0
Flags: W
HStem: 0 21G<175 361.071 509.643 705.517> 530 100<670 830> 540 90<510 557.971> 580 20G<30 204>
VStem: 635 160<249.922 465.535>
LayerCount: 2
Fore
SplineSet
830 630 m 1xc8
 830 530 l 1
 670 530 l 1xc8
 670 530 795 512 795 390 c 0
 795 354 789 325 780 290 c 2
 700 0 l 1
 515 0 l 1
 440 280 l 1
 355 0 l 1
 180 0 l 1
 30 600 l 1
 200 600 l 1x98
 290 150 l 1
 385 440 l 1
 495 440 l 1
 590 150 l 1
 625 290 l 2
 630 316 635 358 635 390 c 0
 635 494 510 540 510 540 c 1
 510 630 l 1xa8
 830 630 l 1xc8
EndSplineSet
EndChar

StartChar: uni0E18
Encoding: 3608 3608 69
Width: 690
VWidth: 0
Flags: W
HStem: -18 120<240.026 435.795> 498 120<235.336 420.701>
VStem: 60 150<385.236 470.783> 80 160<111 240> 470 160<134.681 224.067>
LayerCount: 2
Back
SplineSet
350 618 m 4
 523 618 630 493 630 430 c 5
 490 430 l 5
 490 461 446 508 350 508 c 4
 261 508 217 460 210 420 c 5
 441 402 620 394 620 270 c 6
 620 80 l 5
 620 80 527 -18 350 -18 c 4
 173 -18 80 80 80 80 c 5
 80 280 l 5
 240 280 l 5
 240 140 l 5
 240 140 284 102 350 102 c 4
 416 102 460 140 460 140 c 5
 460 290 l 6
 460 340 60 350 60 350 c 5
 60 512 197 618 350 618 c 4
EndSplineSet
Fore
SplineSet
330 618 m 0xe8
 483 618 610 530 610 410 c 1
 450 410 l 1
 450 465 406 498 330 498 c 0
 262 498 210 468 210 430 c 0xe8
 210 388 247 370 340 360 c 0
 443 349 630 323 630 180 c 0
 630 38 487 -18 340 -18 c 0
 170 -18 80 60 80 60 c 1
 80 240 l 1
 240 240 l 1
 240 120 l 5xd8
 240 120 276 102 340 102 c 0
 402 102 470 129 470 180 c 0
 470 238 394 245 320 255 c 0
 231 267 60 299 60 430 c 0
 60 524 177 618 330 618 c 0xe8
EndSplineSet
EndChar

StartChar: uni0E10
Encoding: 3600 3600 70
Width: 670
VWidth: 0
Flags: W
HStem: -340 110<20 141 381 430> -18 21<289.808 404.5> 508 110<233.42 433.718>
VStem: 410 160<80 296.999> 430 140<-230 -120>
LayerCount: 2
Fore
SplineSet
570 -80 m 1xe8
 570 -340 l 1
 351 -340 l 1
 261 -240 l 1
 171 -340 l 1
 20 -340 l 1
 20 -230 l 1
 141 -230 l 1
 261 -100 l 1
 381 -230 l 1
 430 -230 l 1
 430 -120 l 1
 570 -80 l 1xe8
EndSplineSet
Refer: 18 63232 N 1 0 0 1 0 0 2
Substitution2: "Descent Substitute" uni0E10.descless
EndChar

StartChar: uni0E2F
Encoding: 3631 3631 71
Width: 600
VWidth: 0
Flags: W
HStem: -60 160<250 331.109> 390 120<187.315 348.528> 580 20G<50 180 400 530>
VStem: 50 130<522.99 600> 370 160<135.819 430>
LayerCount: 2
Fore
SplineSet
50 600 m 5
 180 600 l 5
 180 557 l 6
 180 524 213 510 260 510 c 4
 335 510 400 552 400 600 c 5
 530 600 l 5
 530 600 530 360 530 240 c 4
 530 34 438 -60 250 -60 c 5
 250 100 l 5
 327 100 370 126 370 240 c 4
 370 303 370 367 370 430 c 5
 342 409 307 390 250 390 c 4
 147 390 50 442 50 541 c 6
 50 600 l 5
EndSplineSet
EndChar

StartChar: uni0E5A
Encoding: 3674 3674 72
Width: 800
VWidth: 0
Flags: W
HStem: -60 140<240 316.46> 390 120<177.315 338.528> 580 20G<40 170 390 500 580 720>
VStem: 40 130<522.99 600> 360 140<128.181 430> 390 110<550.43 600> 580 140<67.1607 600>
LayerCount: 2
Fore
SplineSet
40 600 m 1xfa
 170 600 l 1
 170 557 l 2
 170 524 203 510 250 510 c 0
 325 510 390 552 390 600 c 1
 500 600 l 1xf6
 500 240 l 2
 500 34 418 -60 240 -60 c 1
 240 80 l 1
 317 80 360 126 360 240 c 2
 360 430 l 1
 332 409 297 390 240 390 c 0
 137 390 40 442 40 541 c 2
 40 600 l 1xfa
580 600 m 1
 720 600 l 1
 720 150 l 6
 720 -6 620 -60 620 -60 c 1
 450 -60 l 1
 450 -60 580 23 580 180 c 2
 580 600 l 1
EndSplineSet
EndChar

StartChar: uni0E13
Encoding: 3603 3603 73
Width: 1020
VWidth: 0
Flags: W
HStem: -18 21G<276.768 305.797> 0 21G<790 950> 488 130<254.155 437.235> 580 20G<790 950>
VStem: 70 160<163.771 464> 480 160<121 440.758> 790 160<0 100 230 600>
LayerCount: 2
Fore
SplineSet
355 618 m 0xae
 482 618 640 556 640 380 c 2
 640 121 l 1
 790 230 l 1
 790 600 l 1
 950 600 l 1
 950 0 l 1
 790 0 l 1x5e
 790 100 l 1
 640 -9 l 1
 531 -9 480 90 480 90 c 1
 480 350 l 2
 480 454 426 488 355 488 c 0
 254 488 230 440 230 440 c 1
 230 230 l 2
 230 134 340 120 340 120 c 1
 300 -18 l 1
 300 -18 70 2 70 180 c 2
 70 520 l 1
 70 520 162 618 355 618 c 0xae
EndSplineSet
EndChar

StartChar: uni0E08
Encoding: 3592 3592 74
Width: 690
VWidth: 0
Flags: W
HStem: -18 21G<286.74 418> 488 130<244.7 419.42>
VStem: 498 150<210.049 409.535>
LayerCount: 2
Fore
SplineSet
330 618 m 4
 506 618 648 476 648 300 c 4
 648 124 506 -18 330 -18 c 6
 300 -18 l 5
 119 255 l 5
 248 335 l 5
 375 130 l 5
 443 152 498 219 498 300 c 4
 498 414 433 488 330 488 c 4
 270 488 209 453 193 400 c 5
 32 400 l 5
 64 527 189 618 330 618 c 4
EndSplineSet
EndChar

StartChar: uni0E0F
Encoding: 3599 3599 76
Width: 720
VWidth: 0
Flags: W
HStem: -340 120<60 180 420 490> -18 21G<45.6522 100.5> 488 130<279.451 453.641>
VStem: 100 160<141.109 465.456> 490 160<-220 447.631>
LayerCount: 2
Fore
SplineSet
375 618 m 0
 502 618 650 556 650 380 c 2
 650 -340 l 1
 385 -340 l 1
 300 -240 l 1
 215 -340 l 1
 215 -340 156 -340 60 -340 c 1
 60 -220 l 1
 180 -220 l 1
 300 -85 l 1
 420 -220 l 1
 490 -220 l 1
 490 350 l 2
 490 454 442 488 375 488 c 0
 308 488 260 450 260 450 c 1
 260 180 l 2
 260 2 151 -18 50 -18 c 1
 20 120 l 1
 69 120 100 134 100 230 c 2
 100 520 l 1
 100 520 188 618 375 618 c 0
EndSplineSet
Substitution2: "Descent Shorten" uni0E0F.shorten
EndChar

StartChar: uni0E4B
Encoding: 3659 3659 77
Width: 0
VWidth: 0
Flags: W
HStem: 1055 70<-335 -240 -130 -35>
VStem: -240 110<980 1055 1125 1200>
LayerCount: 2
Fore
SplineSet
-240 1200 m 5
 -130 1200 l 5
 -130 1125 l 5
 -35 1125 l 5
 -35 1055 l 5
 -130 1055 l 5
 -130 980 l 5
 -240 980 l 5
 -240 1055 l 5
 -335 1055 l 5
 -335 1125 l 5
 -240 1125 l 5
 -240 1200 l 5
EndSplineSet
Position2: "Nikhahit & Tone High-Left" dx=-220 dy=0 dh=0 dv=0
Position2: "Mai Han-Akat & Tone High-Left" dx=-280 dy=0 dh=0 dv=0
Position2: "Tone High-Left" dx=-180 dy=0 dh=0 dv=0
MultipleSubs2: "Tone High-Low" uni0E4B.low
EndChar

StartChar: uni0E0F.shorten
Encoding: 63290 63290 78
Width: 720
VWidth: 0
Flags: W
HStem: -220 120<60 180 420 490> -18 21G<45.6522 100.5> 488 130<279.451 453.641>
VStem: 100 160<141.109 465.456> 490 160<-100 447.631>
LayerCount: 2
Fore
SplineSet
375 618 m 0
 502 618 650 556 650 380 c 2
 650 -220 l 1
 385 -220 l 1
 300 -120 l 1
 215 -220 l 1
 215 -220 156 -220 60 -220 c 1
 60 -100 l 1
 180 -100 l 1
 300 35 l 1
 420 -100 l 1
 490 -100 l 1
 490 350 l 2
 490 454 442 488 375 488 c 0
 308 488 260 450 260 450 c 1
 260 180 l 2
 260 2 151 -18 50 -18 c 1
 20 120 l 1
 69 120 100 134 100 230 c 2
 100 520 l 1
 100 520 188 618 375 618 c 0
EndSplineSet
EndChar

StartChar: uni0E0E.shorten
Encoding: 63291 63291 79
Width: 720
VWidth: 0
Flags: W
HStem: -220 120<90 490> -18 21G<54.2029 110.5> 488 130<279.451 453.641>
VStem: 100 160<141.109 465.456> 490 160<-100 447.631>
LayerCount: 2
Fore
SplineSet
375 618 m 0
 502 618 650 556 650 380 c 2
 650 -220 l 1
 510 -220 l 1
 510 -220 430 -220 350 -220 c 2
 90 -220 l 1
 90 -100 l 1
 350 -100 l 2
 490 -100 l 1
 490 350 l 2
 490 454 442 488 375 488 c 0
 308 488 260 450 260 450 c 1
 260 180 l 2
 260 2 161 -18 60 -18 c 1
 20 120 l 1
 69 120 100 134 100 230 c 2
 100 520 l 1
 100 520 188 618 375 618 c 0
EndSplineSet
EndChar

StartChar: uni0E5B
Encoding: 3675 3675 80
Width: 1420
VWidth: 0
Flags: W
HStem: -18 110<267.93 465.723> 187 115<349.643 410.827> 330 100<1175.37 1380> 550 110<245.146 394.786>
VStem: 42 130<200 465.877> 237 110<302 420> 437 130<330 505.598> 662 68<366.961 390> 1019 97<180 215.923>
LayerCount: 2
Fore
SplineSet
332 660 m 0
 491 660 567 545 567 422 c 0
 567 295 487 187 382 187 c 0
 291 187 237 222 237 222 c 1
 237 420 l 1
 347 420 l 1
 347 302 l 1
 419 302 437 358 437 422 c 0
 437 486 396 550 332 550 c 0
 214 550 172 446 172 342 c 0
 172 174 251 92 362 92 c 0
 571 92 662 334 662 590 c 1
 774 590 l 1
 850 180 l 1
 915 521 l 1
 1022 521 l 1
 1072 309 l 1
 1072 309 1112 430 1209 430 c 2
 1380 430 l 1
 1380 330 l 1
 1229 330 l 2
 1150 330 1116 180 1116 180 c 1
 1019 180 l 1
 972 381 l 1
 912 90 l 1
 782 90 l 1
 730 390 l 1
 728 278 663 -18 362 -18 c 0
 186 -18 42 100 42 342 c 0
 42 518 148 660 332 660 c 0
EndSplineSet
EndChar

StartChar: uni0E4E
Encoding: 3662 3662 81
Width: 0
VWidth: 0
Flags: W
HStem: 700 90<-385.843 -302> 1089 90<-328.872 -192.85>
VStem: -510 110<808.2 894.708> -444 110<999.21 1082.7>
LayerCount: 2
Fore
SplineSet
-170 1144 m 1xd0
 -202 1065 l 1
 -228 1085 -242 1089 -274 1089 c 0
 -300 1089 -324 1081 -332 1055 c 0
 -333.5 1050.13 -334 1044 -334 1039 c 0xd0
 -334 1003 -272 972 -234 970 c 5
 -256 890 l 1
 -269 893 -299.084 902.309 -316 904 c 0
 -356 908 -391 894 -399 868 c 0
 -400.789 862.186 -400 852 -400 847 c 0
 -400 796 -324 790 -275 790 c 1
 -302 700 l 1
 -464 700 -510 770 -510 837 c 0xe0
 -510 856 -508.193 881.762 -495 900 c 0
 -469.255 935.589 -435 959 -389 965 c 1
 -409 978 -444 1016 -444 1050 c 0
 -444 1060 -444.096 1081.26 -441 1092 c 0
 -424 1151 -367 1179 -286 1179 c 0
 -238 1179 -203 1169 -170 1144 c 1xd0
EndSplineSet
EndChar

StartChar: uni0E4F
Encoding: 3663 3663 82
Width: 760
VWidth: 0
Flags: W
HStem: 0 100<281.933 478.067> 170 85<340.339 419.661> 345 85<340.339 419.661> 500 100<281.933 478.067>
VStem: 80 100<201.933 398.067> 250 85<260.339 339.661> 425 85<260.339 339.661> 580 100<201.933 398.067>
LayerCount: 2
Fore
SplineSet
380 600 m 0
 546 600 680 466 680 300 c 0
 680 134 546 0 380 0 c 0
 214 0 80 134 80 300 c 0
 80 466 214 600 380 600 c 0
380 500 m 0
 269 500 180 411 180 300 c 0
 180 189 269 100 380 100 c 0
 491 100 580 189 580 300 c 0
 580 411 491 500 380 500 c 0
380 430 m 0
 452 430 510 372 510 300 c 0
 510 228 452 170 380 170 c 0
 308 170 250 228 250 300 c 0
 250 372 308 430 380 430 c 0
380 345 m 0
 355 345 335 325 335 300 c 0
 335 275 355 255 380 255 c 0
 405 255 425 275 425 300 c 0
 425 325 405 345 380 345 c 0
EndSplineSet
EndChar

StartChar: uni0E51
Encoding: 3665 3665 83
Width: 740
VWidth: 0
Flags: W
HStem: -60 140<360 433.008> 140 130<234.825 301.085> 478 140<259.747 460.206>
VStem: 42 160<297.977 425.769> 302 120<270 340> 538 160<192.318 402.08>
LayerCount: 2
Fore
SplineSet
360 618 m 4
 566 618 698 476 698 300 c 4
 698 72 536 -60 360 -60 c 5
 360 80 l 5
 420 80 538 153 538 300 c 4
 538 404 478 478 360 478 c 4
 262 478 202 424 202 360 c 4
 202 315 236 270 302 270 c 5
 302 340 l 5
 422 340 l 5
 422 180 l 5
 422 180 351 140 277 140 c 4
 145 140 42 233 42 360 c 4
 42 483 174 618 360 618 c 4
EndSplineSet
EndChar

StartChar: uni0E52
Encoding: 3666 3666 84
Width: 1010
VWidth: 0
Flags: W
HStem: 0 140<309.935 750.065> 580 20G<360 575 725 940> 790 150<0 69.0955>
VStem: 120 160<170.226 739.92> 360 160<254.538 460> 780 160<170.226 460>
LayerCount: 2
Fore
SplineSet
0 940 m 1
 152 940 280 856 280 640 c 2
 280 230 l 2
 280 181 322 140 380 140 c 2
 680 140 l 2
 738 140 780 181 780 230 c 2
 780 460 l 1
 650 300 l 1
 520 460 l 1
 520 460 520 353 520 330 c 0
 520 283 550 250 550 250 c 1
 390 250 l 1
 390 250 360 283 360 330 c 0
 360 600 l 1
 560 600 l 1
 650 480 l 1
 740 600 l 1
 940 600 l 1
 940 230 l 2
 940 112 865 0 700 0 c 2
 360 0 l 2
 195 0 120 112 120 230 c 2
 120 640 l 2
 120 744 66 790 0 790 c 1
 0 940 l 1
EndSplineSet
EndChar

StartChar: uni0E54
Encoding: 3668 3668 85
Width: 844
VWidth: 0
Flags: W
HStem: 0 140<272.653 452 592 742> 460 140<272.653 601.334>
VStem: 42 160<208.525 391.475> 452 140<140 314.131> 642 170<640.442 760>
LayerCount: 2
Fore
SplineSet
642 760 m 5
 812 760 l 5
 812 534 682 460 522 460 c 6
 370 460 l 6
 277 460 202 404 202 300 c 4
 202 196 277 140 370 140 c 6
 452 140 l 5
 452 140 452 197 452 220 c 4
 452 277 482 320 482 320 c 5
 622 320 l 5
 622 320 592 277 592 220 c 4
 592 140 l 5
 742 140 l 5
 742 0 l 5
 370 0 l 6
 184 0 42 124 42 300 c 4
 42 476 184 600 370 600 c 6
 502 600 l 6
 604 600 642 634 642 760 c 5
EndSplineSet
EndChar

StartChar: uni0E55
Encoding: 3669 3669 86
Width: 844
VWidth: 0
Flags: W
HStem: 0 140<272.653 452 592 742> 460 150<367.957 456.043> 710 90<369.036 454.964>
VStem: 42 160<208.525 390.959> 272 90<616.354 702.964> 452 140<140 314.131> 462 90<616.266 702.964> 642 170<641.216 760>
LayerCount: 2
Fore
SplineSet
412 800 m 0xfd
 490 800 552 738 552 660 c 0xfb
 552 639 548 620 540 602 c 1
 614 611 642 651 642 760 c 1
 812 760 l 1
 812 534 682 460 522 460 c 2
 370 460 l 2
 277 460 202 404 202 300 c 0
 202 196 277 140 370 140 c 2
 452 140 l 1
 452 220 l 2
 452 277 482 320 482 320 c 1
 622 320 l 1
 622 320 592 277 592 220 c 2
 592 140 l 1
 742 140 l 1
 742 0 l 1
 370 0 l 2
 184 0 42 124 42 300 c 0
 42 449 144 561 289 592 c 1
 278 612 272 635 272 660 c 0
 272 738 334 800 412 800 c 0xfd
412 710 m 0
 384 710 362 688 362 660 c 0
 362 632 384 610 412 610 c 0
 440 610 462 632 462 660 c 0
 462 688 440 710 412 710 c 0
EndSplineSet
EndChar

StartChar: uni0E56
Encoding: 3670 3670 87
Width: 802
VWidth: 0
Flags: W
HStem: -18 130<343.113 515.655> 220 100<280 374> 488 130<330.524 515.655> 790 150<0 68.3737>
VStem: 119 150<565 739.92> 600 160<203.869 396.131>
LayerCount: 2
Fore
SplineSet
0 940 m 5
 152 940 269 856 269 640 c 6
 269 565 l 5
 292 587 361 618 432 618 c 4
 618 618 760 476 760 300 c 4
 760 124 618 -18 432 -18 c 4
 256 -18 114 124 114 300 c 6
 114 320 l 5
 374 320 l 5
 374 220 l 5
 280 220 l 5
 298 156 355 112 432 112 c 4
 525 112 600 196 600 300 c 4
 600 404 525 488 432 488 c 4
 356 488 303 454 279 410 c 5
 120 410 l 5
 119 410 l 5
 119 640 l 6
 119 744 66 790 0 790 c 5
 0 940 l 5
EndSplineSet
EndChar

StartChar: uni0E57
Encoding: 3671 3671 88
Width: 1042
VWidth: 0
Flags: W
HStem: -9 140<266.033 419.995> 0 21G<562 776> 589 11G<244 339.763 503.324 560 812 972>
VStem: 42 160<197.628 416.789> 562 160<130 470> 812 160<206.845 600>
LayerCount: 2
Fore
SplineSet
332 609 m 1xbc
 417 390 l 1
 512 609 l 1
 608 609 722 540 722 540 c 1
 722 130 l 1
 770 160 812 219 812 330 c 2
 812 600 l 1
 972 600 l 1
 972 330 l 2
 972 103 820 0 732 0 c 6
 562 0 l 1x7c
 562 470 l 1
 457 230 l 1
 377 230 l 1
 282 465 l 1
 227 441 202 386 202 300 c 0
 202 186 267 131 360 131 c 0
 415 131 420 144 420 144 c 1
 420 9 l 1
 420 9 413 -9 340 -9 c 0
 154 -9 42 124 42 300 c 0
 42 476 156 609 332 609 c 1xbc
EndSplineSet
EndChar

StartChar: uni0E58
Encoding: 3672 3672 89
Width: 880
VWidth: 0
Flags: W
HStem: 0 140<230 265 555 590> 460 140<262.551 629.334>
VStem: 70 160<140 430.984> 590 160<140 311.678> 670 170<640.442 760>
LayerCount: 2
Back
SplineSet
880 940 m 5xf4
 880 790 l 5
 814 790 760 764 760 660 c 4xf4
 760 532 656 460 580 460 c 4
 524 460 412 460 310 460 c 4
 262 460 230 419 230 380 c 6
 230 140 l 5
 265 140 l 5
 410 320 l 5
 555 140 l 5
 590 140 l 5
 590 320 l 5
 750 320 l 5
 750 0 l 5xf8
 520 0 l 5
 410 140 l 5
 300 0 l 5
 70 0 l 5
 70 380 l 6
 70 478 145 600 310 600 c 6
 310 600 445 600 552 600 c 4
 588 600 610 614 610 660 c 4
 610 827 704 940 880 940 c 5xf4
EndSplineSet
Fore
SplineSet
670 760 m 5xe8
 840 760 l 5xe8
 840 534 710 460 550 460 c 6
 350 460 l 6
 267 460 230 436 230 330 c 6
 230 140 l 5
 265 140 l 5
 410 320 l 5
 555 140 l 5
 590 140 l 5
 590 200 l 6
 590 257 560 320 560 320 c 5
 730 320 l 5
 730 320 750 257 750 200 c 6
 750 0 l 5xf0
 520 0 l 5
 410 140 l 5
 300 0 l 5
 70 0 l 5
 70 330 l 6
 70 485 143 600 350 600 c 6
 530 600 l 6
 632 600 670 634 670 760 c 5xe8
EndSplineSet
EndChar

StartChar: uni0E59
Encoding: 3673 3673 90
Width: 784
VWidth: 0
Flags: W
HStem: -18 140<266.038 340> 0 21G<530.261 703> 580 20G<254 352.667>
VStem: 42 160<188.628 420.698> 624 160<633.011 760>
LayerCount: 2
Fore
SplineSet
624 760 m 1xb8
 784 760 l 1
 784 578 680 480 572 480 c 1
 502 340 l 1
 703 0 l 5
 542 0 l 1x78
 272 460 l 1
 217 436 202 377 202 291 c 0
 202 177 267 122 360 122 c 1
 340 -18 l 1
 154 -18 42 115 42 291 c 0
 42 467 166 600 342 600 c 1
 422 450 l 1
 502 600 l 1
 597 600 624 634 624 760 c 1xb8
EndSplineSet
EndChar

StartChar: uni0E4A
Encoding: 3658 3658 91
Width: 0
VWidth: 0
Flags: W
HStem: 974 55<-331.622 -294>
VStem: -430 90<1034.57 1128.7> -230 90<1055 1135> -90 110<1080.77 1185>
LayerCount: 2
Fore
SplineSet
-294 974 m 1
 -380 974 -430 1018 -430 1085 c 0
 -430 1153 -366 1190 -304 1190 c 1
 -264 1155 l 1
 -234 1185 l 1
 -140 1185 l 1
 -140 1055 l 5
 -104 1065 -90 1124 -90 1185 c 1
 20 1185 l 1
 20 1065 -68 980 -184 980 c 2
 -230 980 l 1
 -230 1050 l 1
 -230 1135 l 1
 -264 1100 l 1
 -304 1135 l 1
 -318 1130 -340 1111 -340 1085 c 0
 -340 1049 -316 1029 -294 1029 c 1
 -294 974 l 1
EndSplineSet
Position2: "Thai Tone Low for Po Pla" dx=-260 dy=-280 dh=0 dv=0
Position2: "Nikhahit & Tone High-Left" dx=-180 dy=0 dh=0 dv=0
Position2: "Mai Han-Akat & Tone High-Left" dx=-220 dy=0 dh=0 dv=0
Position2: "Tone High-Left" dx=-120 dy=0 dh=0 dv=0
MultipleSubs2: "Tone High-Low" uni0E4A.low
EndChar

StartChar: uni0E3F
Encoding: 3647 3647 92
Width: 660
VWidth: 0
Flags: W
HStem: 0 130<220 240 350 410.743> 380 130<220 385.35> 730 130<220 240 350 385.836>
VStem: 50 170<130 380 510 730> 240 110<-180 0 860 1040> 420 170<544.219 695.984> 460 170<178.915 332.147>
LayerCount: 2
Fore
SplineSet
240 1040 m 1xfc
 350 1040 l 1
 350 860 l 1
 509 860 590 769 590 625 c 0xfc
 590 569 561 492 490 450 c 1
 586 411 630 335 630 255 c 0xfa
 630 115 548 0 420 0 c 2
 350 0 l 1
 350 -180 l 1
 240 -180 l 1
 240 0 l 1
 50 0 l 1
 50 860 l 1
 240 860 l 1
 240 1040 l 1xfc
220 730 m 1
 220 510 l 1
 320 510 l 2
 375 510 420 553 420 625 c 0
 420 697 367 730 320 730 c 2
 220 730 l 1
220 380 m 1
 220 130 l 1
 330 130 l 2
 385 130 460 165 460 255 c 0xfa
 460 337 397 380 320 380 c 2
 220 380 l 1
EndSplineSet
EndChar

StartChar: uni0E11
Encoding: 3601 3601 93
Width: 810
VWidth: 0
Flags: W
HStem: 0 21G<160 320 580 740> 488 130<407.544 535.292> 580 20G<30 90 230 320>
VStem: 160 160<0 398.352> 580 160<0 442.193>
LayerCount: 2
Back
SplineSet
530 619 m 4xd8
 655 619 740 548 740 387 c 6
 740 1 l 5
 580 1 l 5
 580 349 l 6
 580 457 528 489 470 489 c 4xd8
 397 489 360 405 360 301 c 6
 360 1 l 5
 200 1 l 5
 200 430 l 5
 130 371 l 5
 10 556 l 5
 99 609 l 5
 169 501 l 5
 280 601 l 5
 360 601 l 5xb8
 360 471 l 5
 371 507 410 619 530 619 c 4xd8
EndSplineSet
Fore
SplineSet
510 618 m 0xd8
 635 618 740 547 740 386 c 2
 740 0 l 1
 580 0 l 1
 580 348 l 2
 580 456 518 488 460 488 c 0xd8
 387 488 320 394 320 290 c 2
 320 0 l 1
 160 0 l 1
 160 300 l 5
 160 368 215 468 215 468 c 1
 160 440 l 1
 55 500 l 1
 30 500 l 1
 30 600 l 1
 55 600 l 1
 160 540 l 1
 265 600 l 1
 320 600 l 1xb8
 320 490 l 1
 336 526 380 618 510 618 c 0xd8
EndSplineSet
EndChar

StartChar: uni0E12
Encoding: 3602 3602 94
Width: 1068
VWidth: 0
Flags: W
HStem: -18 130<281.71 439.972> 0 21G<528 688> 479 130<262.3 350> 580 20G<505.067 688 838 998>
VStem: 42 150<203.6 403.954> 528 160<0 100 230 470> 838 160<121 600>
LayerCount: 2
Fore
SplineSet
350 609 m 1xae
 442 525 l 1
 528 600 l 1
 688 600 l 1
 688 380 l 1
 688 230 l 1
 838 121 l 1
 838 600 l 1
 998 600 l 1
 998 90 l 1
 998 90 947 -9 838 -9 c 1
 688 100 l 1
 688 0 l 1
 528 0 l 1x5e
 528 350 l 1
 528 470 l 1
 442 400 l 1
 350 479 l 1
 257 479 192 414 192 300 c 0
 192 186 277 112 370 112 c 0xae
 401 112 440 125 440 125 c 1
 440 0 l 1x4e
 440 0 401 -18 350 -18 c 0
 164 -18 42 124 42 300 c 0
 42 476 164 609 350 609 c 1xae
EndSplineSet
EndChar

StartChar: uni0E0C
Encoding: 3596 3596 95
Width: 1020
VWidth: 0
Flags: W
HStem: -18 21G<276.768 305.797> 0 21G<480 640> 488 130<254.155 437.235> 580 20G<790 950>
VStem: 70 160<163.771 464> 480 160<0 100 230 440.758> 790 160<121 600>
LayerCount: 2
Fore
SplineSet
355 618 m 0xae
 482 618 640 556 640 380 c 2
 640 230 l 1
 790 121 l 1
 790 600 l 1
 950 600 l 1
 950 90 l 1
 950 90 899 -9 790 -9 c 1
 640 100 l 1
 640 0 l 1
 480 0 l 1x5e
 480 350 l 2
 480 454 426 488 355 488 c 0
 254 488 230 440 230 440 c 1
 230 230 l 2
 230 134 340 120 340 120 c 1
 300 -18 l 1
 300 -18 70 2 70 180 c 2
 70 520 l 1
 70 520 162 618 355 618 c 0xae
EndSplineSet
EndChar

StartChar: uni0E09
Encoding: 3593 3593 96
Width: 720
VWidth: 0
Flags: W
HStem: -18 120<276.639 401.821> 0 21G<500 650> 504 120<256.434 452.953>
VStem: 102 150<125.268 320> 500 150<0 110 188.869 459.965>
LayerCount: 2
Back
SplineSet
340 624 m 4xb8
 516 624 648 516 648 330 c 6
 648 0 l 5
 498 0 l 5x78
 498 110 l 5
 487 74 428 -18 293 -18 c 4
 198 -18 110 19 110 180 c 6
 110 300 l 5
 260 300 l 5
 260 240 l 6
 260 132 280 102 353 102 c 4
 416 102 497 176 498 280 c 5
 498 330 l 6
 498 434 433 494 340 494 c 4
 280 494 222 453 203 400 c 5
 42 400 l 5
 74 527 199 624 340 624 c 4xb8
EndSplineSet
Fore
SplineSet
355 624 m 0xb8
 507 624 650 552 650 410 c 2
 650 0 l 1
 500 0 l 1x78
 500 110 l 1
 489 74 425 -18 290 -18 c 0
 195 -18 102 19 102 180 c 2
 102 320 l 1
 252 320 l 1
 252 240 l 2
 252 132 277 102 350 102 c 0
 413 102 499 176 500 280 c 1
 500 410 l 2
 500 461 432 504 355 504 c 0
 278 504 210 464 210 410 c 1
 50 410 l 1
 50 549 203 624 355 624 c 0xb8
EndSplineSet
EndChar

StartChar: B
Encoding: 66 66 97
Width: 860
VWidth: 0
Flags: W
HStem: 0 140<250 579.669> 370 140<250 540.986> 730 130<250 545.416>
VStem: 80 170<140 370 510 730> 590 170<557.832 690.304> 630 170<181.692 325>
LayerCount: 2
Fore
SplineSet
80 0 m 1xf4
 80 860 l 1
 430 860 l 2
 637 860 760 787 760 625 c 0xf8
 760 555 713 478 650 450 c 1
 758 429 800 325 800 245 c 0
 800 105 713 0 550 0 c 2
 80 0 l 1xf4
250 370 m 1
 250 140 l 1
 460 140 l 2
 539 140 630 161 630 245 c 0xf4
 630 351 553 370 450 370 c 2
 250 370 l 1
250 510 m 1
 440 510 l 2
 549 510 590 573 590 625 c 0xf8
 590 703 525 730 420 730 c 2
 250 730 l 1
 250 510 l 1
EndSplineSet
EndChar

StartChar: period
Encoding: 46 46 98
Width: 360
VWidth: 0
Flags: W
HStem: -18 200<112.456 247.544>
VStem: 80 200<14.4561 149.544>
LayerCount: 2
Fore
SplineSet
280 82 m 0
 280 26 236 -18 180 -18 c 0
 124 -18 80 26 80 82 c 0
 80 138 124 182 180 182 c 0
 236 182 280 138 280 82 c 0
EndSplineSet
EndChar

StartChar: x
Encoding: 120 120 99
Width: 650
VWidth: 0
Flags: W
HStem: 0 21G<20 212.821 437.179 630> 580 20G<50 230.769 419.231 600>
LayerCount: 2
Fore
SplineSet
235 300 m 1
 50 600 l 1
 220 600 l 1
 325 405 l 1
 430 600 l 1
 600 600 l 1
 415 300 l 1
 630 0 l 1
 450 0 l 1
 325 195 l 1
 200 0 l 1
 20 0 l 1
 235 300 l 1
EndSplineSet
EndChar

StartChar: i
Encoding: 105 105 100
Width: 340
VWidth: 0
Flags: W
HStem: 0 21G<90 250> 580 20G<90 250> 710 200<102.456 237.544>
VStem: 70 200<742.456 877.544> 90 160<0 600>
LayerCount: 2
Fore
SplineSet
270 810 m 0xf0
 270 754 226 710 170 710 c 0
 114 710 70 754 70 810 c 0
 70 866 114 910 170 910 c 4
 226 910 270 866 270 810 c 0xf0
90 600 m 1xe8
 250 600 l 1
 250 0 l 1
 90 0 l 1
 90 600 l 1xe8
EndSplineSet
EndChar

StartChar: o
Encoding: 111 111 101
Width: 720
VWidth: 0
Flags: W
HStem: -18 130<278.341 441.659> 488 130<278.341 441.659>
VStem: 42 150<203.869 396.131> 528 150<203.869 396.131>
LayerCount: 2
Fore
SplineSet
360 618 m 4
 536 618 678 476 678 300 c 4
 678 124 536 -18 360 -18 c 4
 184 -18 42 124 42 300 c 4
 42 476 184 618 360 618 c 4
360 488 m 4
 267 488 192 404 192 300 c 4
 192 196 267 112 360 112 c 4
 453 112 528 196 528 300 c 4
 528 404 453 488 360 488 c 4
EndSplineSet
EndChar

StartChar: O
Encoding: 79 79 102
Width: 980
VWidth: 0
Flags: W
HStem: -18 140<378.832 601.168> 738 140<378.832 601.168>
VStem: 42 170<300.114 559.886> 768 170<300.114 559.886>
LayerCount: 2
Fore
SplineSet
490 878 m 4
 737 878 938 677 938 430 c 0
 938 183 737 -18 490 -18 c 0
 243 -18 42 183 42 430 c 0
 42 677 243 878 490 878 c 4
490 738 m 0
 331 738 212 600 212 430 c 0
 212 260 331 122 490 122 c 0
 649 122 768 260 768 430 c 0
 768 600 649 738 490 738 c 0
EndSplineSet
EndChar

StartChar: I
Encoding: 73 73 103
Width: 350
VWidth: 0
Flags: W
HStem: 0 21G<90 260> 840 20G<90 260>
VStem: 90 170<0 860>
LayerCount: 2
Fore
SplineSet
90 860 m 1
 260 860 l 1
 260 0 l 1
 90 0 l 1
 90 860 l 1
EndSplineSet
EndChar

StartChar: X
Encoding: 88 88 104
Width: 810
VWidth: 0
Flags: W
HStem: 0 21G<20 223 577.667 790> 840 20G<50 250.645 559.355 760>
LayerCount: 2
Fore
SplineSet
50 860 m 1
 240 860 l 1
 405 550 l 1
 570 860 l 1
 760 860 l 1
 510 430 l 1
 790 0 l 1
 590 0 l 1
 405 300 l 1
 210 0 l 1
 20 0 l 1
 300 430 l 1
 50 860 l 1
EndSplineSet
EndChar

StartChar: H
Encoding: 72 72 105
Width: 880
VWidth: 0
Flags: W
HStem: 0 21G<80 250 620 800> 370 140<250 620> 840 20G<80 250 620 800>
VStem: 80 170<0 370 510 860> 620 180<0 370 510 860>
LayerCount: 2
Fore
SplineSet
80 860 m 1
 250 860 l 1
 250 510 l 1
 620 510 l 1
 620 860 l 5
 800 860 l 5
 800 0 l 1
 620 0 l 1
 620 370 l 1
 250 370 l 1
 250 0 l 1
 80 0 l 1
 80 860 l 1
EndSplineSet
EndChar

StartChar: P
Encoding: 80 80 106
Width: 810
VWidth: 0
Flags: W
HStem: 0 21G<80 250> 300 140<250 526.684> 720 140<250 525.422>
VStem: 80 170<0 300 440 720> 590 170<498.156 657.19>
LayerCount: 2
Fore
SplineSet
80 860 m 5
 440 860 l 6
 661 860 760 731 760 580 c 4
 760 429 663 300 440 300 c 5
 250 300 l 5
 250 0 l 5
 80 0 l 5
 80 860 l 5
250 720 m 5
 250 440 l 5
 420 440 l 6
 536 440 590 501 590 580 c 4
 590 659 530 720 420 720 c 6
 250 720 l 5
EndSplineSet
EndChar

StartChar: p
Encoding: 112 112 107
Width: 758
VWidth: 0
Flags: W
HStem: -18 130<305.082 476.29> 488 130<305.082 476.29> 580 20G<80 230>
VStem: 80 150<-340 80 188.469 411.531 520 600> 566 150<203.6 396.4>
LayerCount: 2
Fore
SplineSet
80 600 m 5xb8
 230 600 l 5xb8
 230 520 l 5
 246 557 314 618 408 618 c 4xd8
 594 618 716 476 716 300 c 4
 716 124 594 -18 408 -18 c 4
 314 -18 246 43 230 80 c 5
 230 -340 l 5
 80 -340 l 5
 80 600 l 5xb8
388 112 m 4
 481 112 566 186 566 300 c 4
 566 414 481 488 388 488 c 4xd8
 299 488 230 415 230 320 c 6
 230 280 l 6
 230 185 299 112 388 112 c 4
EndSplineSet
EndChar

StartChar: K
Encoding: 75 75 108
Width: 790
VWidth: 0
Flags: W
HStem: 0 21G<80 250 547.778 770> 360 140<250 340> 840 20G<80 250 533.611 740>
VStem: 80 170<0 360 500 860>
LayerCount: 2
Fore
SplineSet
80 860 m 1
 250 860 l 1
 250 500 l 1
 340 500 l 5
 545 860 l 1
 740 860 l 1
 500 440 l 1
 770 0 l 1
 560 0 l 1
 340 360 l 5
 250 360 l 1
 250 0 l 1
 80 0 l 1
 80 860 l 1
EndSplineSet
EndChar

StartChar: j
Encoding: 106 106 109
Width: 340
VWidth: 0
Flags: W
HStem: -340 160<-30 51.109> 580 20G<90 250> 710 200<102.456 237.544>
VStem: 70 200<742.456 877.544> 90 160<-144.181 600>
LayerCount: 2
Fore
SplineSet
90 600 m 5xe8
 250 600 l 5
 250 0 l 5
 250 -40 l 6
 250 -246 158 -340 -30 -340 c 5
 -30 -180 l 5
 47 -180 90 -154 90 -40 c 6
 90 0 l 5
 90 600 l 5xe8
270 810 m 4xf0
 270 754 226 710 170 710 c 4
 114 710 70 754 70 810 c 4
 70 866 114 910 170 910 c 4
 226 910 270 866 270 810 c 4xf0
EndSplineSet
EndChar

StartChar: D
Encoding: 68 68 110
Width: 900
VWidth: 0
Flags: W
HStem: 0 140<250 520.075> 720 140<250 520.075>
VStem: 80 170<140 720> 680 170<299.838 560.162>
LayerCount: 2
Fore
SplineSet
80 860 m 5
 80 860 307 860 420 860 c 4
 667 860 850 697 850 430 c 4
 850 163 667 0 420 0 c 4
 80 0 l 5
 80 860 l 5
250 720 m 5
 250 140 l 5
 390 140 l 6
 549 140 680 240 680 430 c 4
 680 620 549 720 390 720 c 6
 250 720 l 5
EndSplineSet
EndChar

StartChar: E
Encoding: 69 69 111
Width: 760
VWidth: 0
Flags: W
HStem: 0 140<250 720> 370 140<250 640> 720 140<250 700>
VStem: 80 170<140 370 510 720>
LayerCount: 2
Fore
SplineSet
80 860 m 1
 700 860 l 1
 700 720 l 1
 250 720 l 1
 250 510 l 1
 640 510 l 1
 640 370 l 1
 250 370 l 1
 250 140 l 1
 720 140 l 1
 720 0 l 1
 80 0 l 1
 80 860 l 1
EndSplineSet
EndChar

StartChar: L
Encoding: 76 76 112
Width: 580
VWidth: 0
Flags: W
HStem: 0 150<250 540> 840 20G<80 250>
VStem: 80 170<150 860>
LayerCount: 2
Fore
SplineSet
80 860 m 1
 250 860 l 1
 250 150 l 5
 540 150 l 5
 540 0 l 1
 80 0 l 1
 80 860 l 1
EndSplineSet
EndChar

StartChar: F
Encoding: 70 70 113
Width: 730
VWidth: 0
Flags: W
HStem: 0 21G<80 250> 370 140<250 640> 720 140<250 700>
VStem: 80 170<0 370 510 720>
LayerCount: 2
Fore
SplineSet
250 0 m 1
 80 0 l 1
 80 860 l 1
 700 860 l 1
 700 720 l 1
 250 720 l 1
 250 510 l 1
 640 510 l 1
 640 370 l 1
 250 370 l 1
 250 0 l 1
EndSplineSet
EndChar

StartChar: J
Encoding: 74 74 114
Width: 650
VWidth: 0
Flags: W
HStem: -18 140<226.267 369.69> 840 20G<400 570>
VStem: 30 170<152.859 310> 400 170<152.859 860>
LayerCount: 2
Fore
SplineSet
400 860 m 1
 570 860 l 1
 570 212 l 2
 570 80 449 -18 300 -18 c 0
 151 -18 30 80 30 212 c 1
 30 310 l 1
 200 310 l 1
 200 212 l 1
 200 153 246 122 300 122 c 0
 354 122 400 158 400 212 c 2
 400 860 l 1
EndSplineSet
EndChar

StartChar: T
Encoding: 84 84 115
Width: 640
VWidth: 0
Flags: W
HStem: 0 21G<235 405> 720 140<50 235 405 590>
VStem: 235 170<0 720>
LayerCount: 2
Fore
SplineSet
50 860 m 1
 590 860 l 1
 590 720 l 1
 405 720 l 1
 405 0 l 1
 235 0 l 1
 235 720 l 1
 50 720 l 1
 50 860 l 1
EndSplineSet
EndChar

StartChar: N
Encoding: 78 78 116
Width: 880
VWidth: 0
Flags: W
HStem: 0 21G<80 250 589.062 800> 840 20G<80 290.938 630 800>
VStem: 80 170<0 640> 630 170<220 860>
LayerCount: 2
Fore
SplineSet
80 860 m 1
 280 860 l 1
 630 220 l 1
 630 860 l 1
 800 860 l 1
 800 0 l 1
 600 0 l 1
 250 640 l 1
 250 0 l 1
 80 0 l 1
 80 860 l 1
EndSplineSet
EndChar

StartChar: M
Encoding: 77 77 117
Width: 1040
VWidth: 0
Flags: W
HStem: 0 21G<80 250 448.492 591.508 790 960> 840 20G<80 326.452 713.548 960>
VStem: 80 170<0 630> 790 170<0 630>
LayerCount: 2
Fore
SplineSet
455 0 m 1
 250 630 l 1
 250 0 l 1
 80 0 l 1
 80 860 l 1
 320 860 l 1
 520 240 l 1
 720 860 l 1
 960 860 l 1
 960 0 l 1
 790 0 l 1
 790 630 l 1
 585 0 l 1
 455 0 l 1
EndSplineSet
EndChar

StartChar: U
Encoding: 85 85 118
Width: 880
VWidth: 0
Flags: W
HStem: -18 140<334.206 545.794> 840 20G<70 245 635 810>
VStem: 70 175<225.252 860> 635 175<225.252 860>
LayerCount: 2
Fore
SplineSet
70 860 m 1
 245 860 l 1
 245 370 l 2
 245 218 296 122 440 122 c 0
 584 122 635 218 635 370 c 2
 635 860 l 1
 810 860 l 1
 810 330 l 2
 810 111 660 -18 440 -18 c 0
 220 -18 70 111 70 330 c 2
 70 860 l 1
EndSplineSet
EndChar

StartChar: b
Encoding: 98 98 119
Width: 758
VWidth: 0
Flags: W
HStem: -18 130<305.082 476.29> 0 21G<80 230> 488 130<305.082 476.29> 920 20G<80 230>
VStem: 80 150<0 80 188.469 411.531 520 940> 566 150<203.6 396.4>
LayerCount: 2
Fore
SplineSet
80 0 m 5x7c
 80 940 l 5
 230 940 l 5
 230 520 l 5
 246 557 314 618 408 618 c 4
 594 618 716 476 716 300 c 4
 716 124 594 -18 408 -18 c 4xbc
 314 -18 246 43 230 80 c 5
 230 0 l 5
 80 0 l 5x7c
388 488 m 4
 299 488 230 415 230 320 c 6
 230 280 l 6
 230 185 299 112 388 112 c 4
 481 112 566 186 566 300 c 4
 566 414 481 488 388 488 c 4
EndSplineSet
EndChar

StartChar: R
Encoding: 82 82 120
Width: 810
VWidth: 0
Flags: W
HStem: 0 21G<80 250 567.867 790> 300 140<250 398> 720 140<250 525.422>
VStem: 80 170<0 300 440 720> 590 170<497.87 657.19>
LayerCount: 2
Back
SplineSet
60 860 m 5
 390 860 l 6
 584 860 730 788 730 610 c 4
 730 524 674 430 580 400 c 5
 671 383 730 289 730 180 c 4
 730 71 780 0 780 0 c 5
 600 0 l 5
 600 0 560 50 560 180 c 4
 560 294 453 330 370 330 c 6
 230 330 l 5
 230 0 l 5
 60 0 l 5
 60 860 l 5
230 720 m 5
 230 470 l 5
 390 470 l 6
 477 470 560 508 560 590 c 4
 560 672 515 720 390 720 c 6
 230 720 l 5
EndSplineSet
Fore
SplineSet
80 860 m 5
 440 860 l 6
 661 860 760 731 760 580 c 4
 760 467 696 361 585 323 c 5
 790 0 l 5
 580 0 l 5
 398 300 l 5
 250 300 l 5
 250 0 l 5
 80 0 l 5
 80 860 l 5
250 720 m 5
 250 440 l 5
 420 440 l 6
 536 440 590 501 590 580 c 4
 590 659 530 720 420 720 c 6
 250 720 l 5
EndSplineSet
EndChar

StartChar: V
Encoding: 86 86 121
Width: 880
VWidth: 0
Flags: W
HStem: 0 21G<342.326 537.674> 840 20G<20 217.077 662.923 860>
LayerCount: 2
Fore
SplineSet
20 860 m 1
 210 860 l 1
 440 210 l 1
 670 860 l 1
 860 860 l 1
 530 0 l 1
 350 0 l 1
 20 860 l 1
EndSplineSet
EndChar

StartChar: Y
Encoding: 89 89 122
Width: 800
VWidth: 0
Flags: W
HStem: 0 21G<310 490> 840 20G<20 219.5 580.5 780>
VStem: 310 180<0 280>
LayerCount: 2
Fore
SplineSet
20 860 m 1
 210 860 l 1
 400 460 l 1
 590 860 l 1
 780 860 l 1
 490 280 l 5
 490 0 l 5
 310 0 l 1
 310 280 l 1
 20 860 l 1
EndSplineSet
EndChar

StartChar: A
Encoding: 65 65 123
Width: 880
VWidth: 0
Flags: W
HStem: 0 21G<20 207.778 672.222 860> 180 140<315 565> 840 20G<352.093 527.907>
LayerCount: 2
Fore
SplineSet
360 860 m 1
 520 860 l 1
 860 0 l 1
 680 0 l 1
 610 180 l 1
 270 180 l 1
 200 0 l 1
 20 0 l 1
 360 860 l 1
440 650 m 1
 315 320 l 1
 565 320 l 1
 440 650 l 1
EndSplineSet
EndChar

StartChar: Q
Encoding: 81 81 124
Width: 996
VWidth: 0
Flags: W
HStem: -18 140<378.832 597.918> 738 140<378.832 601.168>
VStem: 42 170<300.114 559.886> 768 170<298.803 559.886>
LayerCount: 2
Fore
SplineSet
490 878 m 0
 737 878 938 677 938 430 c 0
 938 323 901 225 838 148 c 1
 986 0 l 1
 866 -120 l 1
 708 39 l 1
 643 3 569 -18 490 -18 c 0
 243 -18 42 183 42 430 c 0
 42 677 243 878 490 878 c 0
490 738 m 0
 331 738 212 600 212 430 c 0
 212 260 331 122 490 122 c 0
 530 122 567 131 600 146 c 1
 442 304 l 1
 562 424 l 1
 724 262 l 1
 752 310 768 368 768 430 c 0
 768 600 649 738 490 738 c 0
EndSplineSet
EndChar

StartChar: Z
Encoding: 90 90 125
Width: 780
VWidth: 0
Flags: W
HStem: 0 150<270 730> 710 150<80 490>
LayerCount: 2
Fore
SplineSet
80 860 m 1
 710 860 l 1
 710 710 l 1
 270 150 l 1
 730 150 l 1
 730 0 l 1
 50 0 l 1
 50 150 l 1
 490 710 l 5
 80 710 l 1
 80 860 l 1
EndSplineSet
EndChar

StartChar: W
Encoding: 87 87 126
Width: 1170
VWidth: 0
Flags: W
HStem: 0 21G<244.884 469.528 700.472 925.116> 840 20G<30 224.375 500.469 669.531 945.625 1140>
LayerCount: 2
Fore
SplineSet
505 860 m 1
 665 860 l 1
 810 220 l 1
 950 860 l 1
 1140 860 l 1
 920 0 l 1
 705 0 l 1
 585 530 l 1
 465 0 l 1
 250 0 l 1
 30 860 l 1
 220 860 l 1
 360 220 l 1
 505 860 l 1
EndSplineSet
EndChar

StartChar: S
Encoding: 83 83 127
Width: 820
VWidth: 0
Flags: W
HStem: -18 140<315.444 536.729> 738 140<297.567 503.469>
VStem: 55 170<556.022 673.42> 605 170<183.278 310.644>
LayerCount: 2
Fore
SplineSet
400 878 m 0
 629 878 755 724 755 590 c 1
 575 590 l 1
 575 670 518 738 400 738 c 0
 293 738 225 672 225 610 c 0
 225 544 295 519 410 505 c 0
 619 479 775 428 775 250 c 0
 775 63 624 -18 420 -18 c 4
 213 -18 45 87 45 290 c 1
 225 290 l 1
 225 179 327 122 420 122 c 4
 511 122 605 163 605 250 c 0
 605 327 520 361 370 375 c 0
 205 391 55 441 55 610 c 0
 55 725 171 878 400 878 c 0
EndSplineSet
EndChar

StartChar: u
Encoding: 117 117 128
Width: 720
VWidth: 0
Flags: W
HStem: -18 130<270.315 393.71> 0 21G<480 640> 580 20G<60 220 480 640>
VStem: 60 160<164.377 600> 480 160<0 110 174.664 600>
LayerCount: 2
Fore
SplineSet
640 0 m 5x78
 480 0 l 5x78
 480 110 l 5
 464 74 420 -18 290 -18 c 4
 165 -18 60 53 60 214 c 6
 60 600 l 5
 220 600 l 5
 220 252 l 6
 220 144 292 112 350 112 c 4xb8
 423 112 480 176 480 280 c 6
 480 600 l 5
 640 600 l 5
 640 0 l 5x78
EndSplineSet
EndChar

StartChar: C
Encoding: 67 67 129
Width: 964
VWidth: 0
Flags: W
HStem: -18 140<378.832 610.939> 738 140<378.832 610.939>
VStem: 42 170<300.114 559.886>
LayerCount: 2
Fore
SplineSet
490 878 m 4
 715 878 874 739 922 550 c 1
 745 550 l 1
 707 660 629 738 490 738 c 0
 331 738 212 600 212 430 c 0
 212 260 331 122 490 122 c 0
 629 122 707 200 745 310 c 1
 922 310 l 1
 874 121 715 -18 490 -18 c 0
 243 -18 42 183 42 430 c 0
 42 677 243 878 490 878 c 4
EndSplineSet
EndChar

StartChar: d
Encoding: 100 100 130
Width: 758
VWidth: 0
Flags: W
HStem: -18 130<281.71 452.918> 0 21G<528 678> 488 130<281.71 452.918> 920 20G<528 678>
VStem: 42 150<203.6 396.4> 528 150<0 80 188.469 411.531 520 940>
LayerCount: 2
Fore
SplineSet
678 0 m 1x7c
 528 0 l 1x7c
 528 80 l 1
 512 43 444 -18 350 -18 c 0xbc
 164 -18 42 124 42 300 c 0
 42 476 164 618 350 618 c 0
 444 618 512 557 528 520 c 1
 528 940 l 1
 678 940 l 1
 678 0 l 1x7c
370 488 m 0
 277 488 192 414 192 300 c 0
 192 186 277 112 370 112 c 0xbc
 459 112 528 185 528 280 c 2
 528 320 l 2
 528 415 459 488 370 488 c 0
EndSplineSet
EndChar

StartChar: G
Encoding: 71 71 131
Width: 980
VWidth: 0
Flags: W
HStem: -18 140<378.832 615.72> 330 120<538 762> 738 140<378.832 610.939>
VStem: 42 170<300.114 559.886>
LayerCount: 2
Fore
SplineSet
490 878 m 0
 715 878 874 739 922 550 c 1
 745 550 l 1
 707 660 629 738 490 738 c 0
 331 738 212 600 212 430 c 0
 212 260 331 122 490 122 c 0
 636 122 744 209 762 330 c 1
 538 330 l 1
 538 450 l 1
 938 450 l 1
 938 430 l 2
 938 183 767 -18 490 -18 c 0
 243 -18 42 183 42 430 c 0
 42 677 243 878 490 878 c 0
EndSplineSet
EndChar

StartChar: g
Encoding: 103 103 132
Width: 758
VWidth: 0
Flags: W
HStem: -340 130<269.231 442.678> -18 130<281.71 452.918> 488 130<281.71 452.918> 580 20G<528 678>
VStem: 42 150<203.6 396.4> 528 150<-123.061 80 188.469 411.531 520 600>
LayerCount: 2
Fore
SplineSet
350 618 m 0xec
 444 618 512 557 528 520 c 1
 528 600 l 1
 678 600 l 1xdc
 678 -22 l 2
 678 -198 536 -340 360 -340 c 0
 219 -340 90 -249 58 -122 c 1
 218 -122 l 1
 239 -175 290 -210 360 -210 c 0
 447 -210 519 -137 528 -42 c 1
 528 80 l 1
 512 43 444 -18 350 -18 c 0
 164 -18 42 124 42 300 c 0
 42 476 164 618 350 618 c 0xec
370 488 m 0xec
 277 488 192 414 192 300 c 0
 192 186 277 112 370 112 c 0
 459 112 528 185 528 280 c 2
 528 320 l 2
 528 415 459 488 370 488 c 0xec
EndSplineSet
EndChar

StartChar: l
Encoding: 108 108 133
Width: 340
VWidth: 0
Flags: W
HStem: 0 21G<90 250> 920 20G<90 250>
VStem: 90 160<0 940>
LayerCount: 2
Fore
SplineSet
90 940 m 1
 250 940 l 1
 250 0 l 1
 90 0 l 1
 90 940 l 1
EndSplineSet
EndChar

StartChar: n
Encoding: 110 110 134
Width: 720
VWidth: 0
Flags: W
HStem: 0 21G<80 240 500 660> 488 130<326.29 449.685> 580 20G<80 240>
VStem: 80 160<0 425.336 490 600> 500 160<0 435.623>
LayerCount: 2
Fore
SplineSet
80 600 m 5xb8
 240 600 l 5xb8
 240 490 l 5
 256 526 300 618 430 618 c 4
 555 618 660 547 660 386 c 6
 660 0 l 5
 500 0 l 5
 500 348 l 6
 500 456 428 488 370 488 c 4xd8
 297 488 240 424 240 320 c 6
 240 0 l 5
 80 0 l 5
 80 600 l 5xb8
EndSplineSet
EndChar

StartChar: m
Encoding: 109 109 135
Width: 1000
VWidth: 0
Flags: W
HStem: 0 21G<80 240 430 590 780 940> 488 130<303.986 399.971 628.729 748.829> 580 20G<80 240>
VStem: 80 160<0 448.284 510 600> 430 160<0 452.093> 780 160<0 454.949>
CounterMasks: 1 1c
LayerCount: 2
Fore
SplineSet
395 618 m 4xdc
 478 618 533 578 565 510 c 5
 593 577 637 618 735 618 c 4
 860 618 940 547 940 386 c 6
 940 0 l 5
 780 0 l 5
 780 348 l 6
 780 456 743 488 685 488 c 4
 612 488 590 424 590 320 c 6
 590 0 l 5
 430 0 l 5
 430 348 l 6
 430 456 393 488 335 488 c 4xdc
 267 488 240 424 240 320 c 6
 240 0 l 5
 80 0 l 5
 80 600 l 5
 240 600 l 5xbc
 240 510 l 5
 256 546 291 618 395 618 c 4xdc
EndSplineSet
EndChar

StartChar: q
Encoding: 113 113 136
Width: 758
VWidth: 0
Flags: W
HStem: -18 130<281.71 452.918> 488 130<281.71 452.918> 580 20G<528 678>
VStem: 42 150<203.6 396.4> 528 150<-340 80 188.469 411.531 520 600>
LayerCount: 2
Fore
SplineSet
678 600 m 1xb8
 678 -340 l 1
 528 -340 l 1
 528 80 l 1
 512 43 444 -18 350 -18 c 0
 164 -18 42 124 42 300 c 0
 42 476 164 618 350 618 c 0xd8
 444 618 512 557 528 520 c 1
 528 600 l 1
 678 600 l 1xb8
370 112 m 0
 459 112 528 185 528 280 c 2
 528 320 l 2
 528 415 459 488 370 488 c 0
 277 488 192 414 192 300 c 0
 192 186 277 112 370 112 c 0
EndSplineSet
EndChar

StartChar: a
Encoding: 97 97 137
Width: 758
VWidth: 0
Flags: W
HStem: -18 130<281.71 452.918> 0 21G<528 678> 488 130<281.71 452.918> 580 20G<528 678>
VStem: 42 150<203.6 396.4> 528 150<0 80 188.469 411.531 520 600>
LayerCount: 2
Fore
SplineSet
678 0 m 1x5c
 528 0 l 1x5c
 528 80 l 1
 512 43 444 -18 350 -18 c 0
 164 -18 42 124 42 300 c 0
 42 476 164 618 350 618 c 0xac
 444 618 512 557 528 520 c 1
 528 600 l 1
 678 600 l 1
 678 0 l 1x5c
370 488 m 0xac
 277 488 192 414 192 300 c 0
 192 186 277 112 370 112 c 0
 459 112 528 185 528 280 c 2
 528 320 l 2
 528 415 459 488 370 488 c 0xac
EndSplineSet
EndChar

StartChar: h
Encoding: 104 104 138
Width: 730
VWidth: 0
Flags: W
HStem: 0 21G<80 240 500 660> 488 130<326.29 449.685> 920 20G<80 240>
VStem: 80 160<0 425.336 490 940> 500 160<0 435.623>
LayerCount: 2
Fore
SplineSet
80 940 m 5
 240 940 l 5
 240 600 l 5
 240 490 l 5
 256 526 300 618 430 618 c 4
 555 618 660 547 660 386 c 6
 660 0 l 5
 500 0 l 5
 500 348 l 6
 500 456 428 488 370 488 c 4
 297 488 240 424 240 320 c 6
 240 0 l 5
 80 0 l 5
 80 600 l 5
 80 940 l 5
EndSplineSet
EndChar

StartChar: e
Encoding: 101 101 139
Width: 720
VWidth: 0
Flags: W
HStem: -18 130<265.136 450.769> 260 100<198 522> 488 130<269.755 450.302>
LayerCount: 2
Fore
SplineSet
360 618 m 0
 536 618 678 476 678 300 c 2
 678 260 l 1
 193 260 l 1
 202 165 273 112 360 112 c 0
 430 112 481 147 502 200 c 1
 662 200 l 1
 630 73 501 -18 360 -18 c 0
 184 -18 42 124 42 300 c 0
 42 476 184 618 360 618 c 0
360 488 m 0
 274 488 215 434 198 360 c 1
 522 360 l 1
 504 434 447 488 360 488 c 0
EndSplineSet
EndChar

StartChar: c
Encoding: 99 99 140
Width: 690
VWidth: 0
Flags: W
HStem: -18 130<278.341 444.721> 488 130<278.341 444.721>
VStem: 42 150<203.869 396.131>
LayerCount: 2
Fore
SplineSet
360 618 m 4
 501 618 626 527 658 400 c 5
 497 400 l 5
 478 453 420 488 360 488 c 4
 267 488 192 404 192 300 c 4
 192 196 267 112 360 112 c 4
 420 112 478 147 497 200 c 5
 658 200 l 5
 626 73 501 -18 360 -18 c 4
 184 -18 42 124 42 300 c 4
 42 476 184 618 360 618 c 4
EndSplineSet
EndChar

StartChar: w
Encoding: 119 119 141
Width: 880
VWidth: 0
Flags: W
HStem: 0 21G<175 359.857 510.714 705> 580 20G<30 204.286 380.476 499.524 675.714 850>
LayerCount: 2
Fore
SplineSet
30 600 m 1
 200 600 l 1
 290 180 l 1
 385 600 l 1
 495 600 l 1
 590 180 l 1
 680 600 l 1
 850 600 l 1
 700 0 l 1
 515 0 l 1
 440 350 l 1
 355 0 l 1
 180 0 l 1
 30 600 l 1
EndSplineSet
EndChar

StartChar: v
Encoding: 118 118 142
Width: 680
VWidth: 0
Flags: W
HStem: 0 21G<242.333 437.667> 580 20G<20 191.889 488.111 660>
LayerCount: 2
Fore
SplineSet
20 600 m 1
 185 600 l 1
 340 150 l 1
 495 600 l 1
 660 600 l 1
 430 0 l 1
 250 0 l 1
 20 600 l 1
EndSplineSet
EndChar

StartChar: z
Encoding: 122 122 143
Width: 620
VWidth: 0
Flags: W
HStem: 0 140<240 580> 460 140<60 360>
LayerCount: 2
Fore
SplineSet
60 600 m 1
 560 600 l 1
 560 460 l 1
 240 140 l 1
 580 140 l 1
 580 0 l 1
 40 0 l 1
 40 140 l 1
 360 460 l 5
 60 460 l 1
 60 600 l 1
EndSplineSet
EndChar

StartChar: y
Encoding: 121 121 144
Width: 690
VWidth: 0
Flags: W
HStem: 580 20G<30 217.25 473.75 660>
LayerCount: 2
Fore
SplineSet
30 600 m 1
 210 600 l 1
 355 200 l 1
 480 600 l 1
 660 600 l 1
 310 -340 l 1
 130 -340 l 1
 270 0 l 1
 30 600 l 1
EndSplineSet
EndChar

StartChar: r
Encoding: 114 114 145
Width: 500
VWidth: 0
Flags: W
HStem: 0 21G<70 230> 468 150<365.844 460> 580 20G<70 230>
VStem: 70 160<0 331.58 450 600>
LayerCount: 2
Fore
SplineSet
460 468 m 1xd0
 322 468 230 342 230 220 c 2
 230 0 l 1
 70 0 l 1
 70 600 l 1
 230 600 l 1xb0
 230 450 l 1
 244 505 347 618 460 618 c 1
 460 468 l 1xd0
EndSplineSet
EndChar

StartChar: numbersign
Encoding: 35 35 146
Width: 1020
VWidth: 0
Flags: W
HStem: 220 120<70 290 430 590 730 950> 520 120<70 290 430 590 730 950> 920 20G<290 430 590 730>
VStem: 290 140<-80 220 340 520 640 940> 590 140<-80 220 340 520 640 940>
LayerCount: 2
Fore
SplineSet
950 640 m 1
 950 520 l 1
 730 520 l 1
 730 340 l 1
 950 340 l 1
 950 220 l 1
 730 220 l 1
 730 -80 l 1
 590 -80 l 1
 590 220 l 1
 430 220 l 1
 430 -80 l 1
 290 -80 l 1
 290 220 l 1
 70 220 l 1
 70 340 l 1
 290 340 l 1
 290 520 l 1
 70 520 l 1
 70 640 l 1
 290 640 l 1
 290 940 l 1
 430 940 l 1
 430 640 l 1
 590 640 l 1
 590 940 l 1
 730 940 l 1
 730 640 l 1
 950 640 l 1
590 340 m 1
 590 520 l 1
 430 520 l 1
 430 340 l 1
 590 340 l 1
EndSplineSet
EndChar

StartChar: asterisk
Encoding: 42 42 147
Width: 475
VWidth: 0
Flags: W
HStem: 920 20G<186 290>
VStem: 186 104<798 940>
LayerCount: 2
Fore
SplineSet
186 940 m 5
 290 940 l 5
 290 798 l 1
 425 842 l 1
 455 743 l 1
 322 699 l 1
 405 585 l 1
 322 524 l 1
 238 639 l 1
 154 524 l 1
 71 585 l 1
 154 699 l 1
 20 743 l 1
 51 842 l 1
 186 798 l 1
 186 940 l 5
EndSplineSet
EndChar

StartChar: s
Encoding: 115 115 148
Width: 664
VWidth: 0
Flags: W
HStem: -18 120<248.669 427.795> 498 120<227.336 412.701>
VStem: 52 150<385.236 470.783> 462 160<134.681 224.076>
LayerCount: 2
Fore
SplineSet
322 618 m 4
 475 618 602 530 602 410 c 5
 442 410 l 5
 442 465 398 498 322 498 c 4
 254 498 202 468 202 430 c 4
 202 388 239 370 332 360 c 4
 434.583 348.97 622 323 622 180 c 4
 622 38 479 -18 332 -18 c 4
 185 -18 42 51 42 190 c 5
 212 190 l 5
 212 136 270 102 332 102 c 4
 394 102 462 129 462 180 c 4
 462 238 385.577 245.079 312 255 c 4
 223 267 52 299 52 430 c 4
 52 524 169 618 322 618 c 4
EndSplineSet
EndChar

StartChar: f
Encoding: 102 102 149
Width: 430
VWidth: 0
Flags: W
HStem: 0 21G<130 290> 480 120<20 130 290 400> 780 160<331.58 410>
VStem: 130 160<0 480 600 731.765>
LayerCount: 2
Fore
SplineSet
410 940 m 5
 410 780 l 5
 344 780 290 744 290 640 c 6
 290 600 l 5
 400 600 l 5
 400 480 l 5
 290 480 l 5
 290 0 l 5
 130 0 l 5
 130 480 l 5
 20 480 l 5
 20 600 l 5
 130 600 l 5
 130 640 l 6
 130 856 248 940 410 940 c 5
EndSplineSet
EndChar

StartChar: t
Encoding: 116 116 150
Width: 420
VWidth: 0
Flags: W
HStem: 0 21G<130 290> 480 120<20 130 290 400> 840 20G<130 290>
VStem: 130 160<0 480 600 860>
LayerCount: 2
Fore
SplineSet
290 860 m 1
 290 600 l 1
 400 600 l 5
 400 480 l 5
 290 480 l 1
 290 0 l 1
 130 0 l 1
 130 480 l 1
 20 480 l 1
 20 600 l 1
 130 600 l 1
 130 860 l 1
 290 860 l 1
EndSplineSet
EndChar

StartChar: k
Encoding: 107 107 151
Width: 660
VWidth: 0
Flags: W
HStem: 0 21G<80 240 447.66 640> 580 20G<434.071 610> 920 20G<80 240>
VStem: 80 160<0 140 320 940>
LayerCount: 2
Fore
SplineSet
80 940 m 5
 240 940 l 5
 240 320 l 5
 449 600 l 5
 610 600 l 5
 410 335 l 5
 640 0 l 5
 460 0 l 5
 315 235 l 5
 240 140 l 5
 240 0 l 5
 80 0 l 5
 80 940 l 5
EndSplineSet
EndChar

StartChar: bar
Encoding: 124 124 153
Width: 320
VWidth: 0
Flags: W
HStem: 920 20G<80 240>
VStem: 80 160<-340 940>
LayerCount: 2
Fore
SplineSet
80 940 m 1
 240 940 l 1
 240 -340 l 1
 80 -340 l 1
 80 940 l 1
EndSplineSet
EndChar

StartChar: slash
Encoding: 47 47 154
Width: 590
VWidth: 0
Flags: W
HStem: 920 20G<345.304 510>
LayerCount: 2
Fore
SplineSet
350 940 m 1
 510 940 l 1
 240 -210 l 1
 80 -210 l 1
 350 940 l 1
EndSplineSet
EndChar

StartChar: backslash
Encoding: 92 92 156
Width: 590
VWidth: 0
Flags: W
HStem: 920 20G<80 244.696>
LayerCount: 2
Fore
SplineSet
240 940 m 1
 510 -210 l 1
 350 -210 l 1
 80 940 l 1
 240 940 l 1
EndSplineSet
EndChar

StartChar: seven
Encoding: 55 55 157
Width: 660
Flags: W
HStem: 0 21G<200 380> 720 140<50 430>
VStem: 200 180<0 353.877>
LayerCount: 2
Fore
SplineSet
200 0 m 1
 200 180 l 2
 200 480 430 720 430 720 c 1
 50 720 l 1
 50 860 l 1
 610 860 l 1
 610 720 l 1
 610 720 380 486 380 180 c 2
 380 0 l 1
 200 0 l 1
EndSplineSet
EndChar

StartChar: exclam
Encoding: 33 33 158
Width: 340
VWidth: 0
Flags: W
HStem: -18 200<102.456 237.544> 920 20G<90 250>
VStem: 70 200<14.4561 149.544> 90 160<280 940>
LayerCount: 2
Fore
SplineSet
270 82 m 0xe0
 270 26 226 -18 170 -18 c 0
 114 -18 70 26 70 82 c 0
 70 138 114 182 170 182 c 0
 226 182 270 138 270 82 c 0xe0
90 940 m 1xd0
 250 940 l 1
 250 280 l 1
 90 280 l 1
 90 940 l 1xd0
EndSplineSet
EndChar

StartChar: dollar
Encoding: 36 36 160
Width: 660
Flags: W
HStem: -180 299<276.371 383.629> 600 21G<429.5 600> 733 307<269.62 377.954>
VStem: 50 160<165.552 250> 60 160<558.368 700.887> 269 110<-180 -7.75012 858.258 1040> 430 170<600 692.024> 450 160<156.792 292.239>
LayerCount: 2
Fore
SplineSet
450 220 m 4xf5
 450 305 384 328 315 355 c 4
 167 413 60 504 60 632 c 4
 60 763 158 847 269 862 c 5
 269 1040 l 5
 379 1040 l 5
 379 862 l 5
 521 840 598 718 600 600 c 5
 430 600 l 5
 429 680 390 733 325 733 c 4
 260 733 220 691 220 632 c 4xee
 220 559 277 520 355 490 c 4
 526 424 610 347 610 220 c 4
 609 80 500 3 385 -10 c 5
 385 -180 l 5
 275 -180 l 5
 275 -10 l 5
 127 7 50 114 50 250 c 5
 210 250 l 5
 210 158 266 119 330 119 c 4
 394 119 450 157 450 220 c 4xf5
EndSplineSet
EndChar

StartChar: percent
Encoding: 37 37 161
Width: 1000
VWidth: 0
Flags: W
HStem: 0 105<676.17 803.83> 295 105<676.17 803.83> 460 105<196.17 323.83> 755 105<196.17 323.83>
VStem: 60 105<596.17 723.83> 355 105<596.17 723.83> 540 105<136.17 263.83> 835 105<136.17 263.83>
LayerCount: 2
Fore
SplineSet
260 860 m 4
 370 860 460 770 460 660 c 4
 460 550 370 460 260 460 c 4
 150 460 60 550 60 660 c 4
 60 770 150 860 260 860 c 4
670 860 m 5
 820 860 l 5
 330 0 l 5
 180 0 l 5
 670 860 l 5
260 755 m 4
 208 755 165 712 165 660 c 4
 165 608 208 565 260 565 c 4
 312 565 355 608 355 660 c 4
 355 712 312 755 260 755 c 4
740 400 m 4
 850 400 940 310 940 200 c 4
 940 90 850 0 740 0 c 4
 630 0 540 90 540 200 c 4
 540 310 630 400 740 400 c 4
740 295 m 4
 688 295 645 252 645 200 c 4
 645 148 688 105 740 105 c 4
 792 105 835 148 835 200 c 4
 835 252 792 295 740 295 c 4
EndSplineSet
EndChar

StartChar: ampersand
Encoding: 38 38 162
Width: 890
VWidth: 0
Flags: W
HStem: -18 140<291.243 475.002> 0 21G<653.607 850> 758 120<318.821 441.179>
VStem: 60 170<181.894 345.149> 160 140<606.101 738.489> 460 140<620.25 738.489> 640 170<303.558 420>
LayerCount: 2
Fore
SplineSet
380 878 m 0xae
 502 878 600 788 600 678 c 0
 600 589 539 529 450 480 c 1
 608 290 l 1
 628 331 640 375 640 420 c 1
 810 420 l 1
 810 332 777 237 718 158 c 1
 850 0 l 1
 670 0 l 1x6e
 620 61 l 1
 553 12 472 -18 380 -18 c 0
 203 -18 60 103 60 252 c 0xb6
 60 359 134 454 241 515 c 1
 192 565 160 603 160 678 c 0
 160 788 258 878 380 878 c 0xae
380 758 m 0
 328 758 300 722 300 678 c 0
 300 614 360 570 360 570 c 1
 360 570 460 610 460 678 c 0
 460 722 432 758 380 758 c 0
330 410 m 1
 265 376 230 328 230 252 c 0
 230 180 297 122 380 122 c 0xb6
 429 122 479 144 521 179 c 1
 330 410 l 1
EndSplineSet
EndChar

StartChar: quotesingle
Encoding: 39 39 163
Width: 280
VWidth: 0
Flags: W
HStem: 660 280<70 210>
VStem: 70 140<660 940>
LayerCount: 2
Fore
SplineSet
70 940 m 1
 210 940 l 1
 210 660 l 1
 70 660 l 1
 70 940 l 1
EndSplineSet
Substitution2: "Latin Apostrophe" quoteright
EndChar

StartChar: parenleft
Encoding: 40 40 164
Width: 530
VWidth: 0
Flags: W
VStem: 60 160<77.4425 632.557>
LayerCount: 2
Fore
SplineSet
470 1050 m 1
 470 950 l 1
 243 819 220 644 220 400 c 2
 220 310 l 2
 220 66 243 -109 470 -240 c 5
 470 -340 l 1
 167 -270 60 7 60 310 c 2
 60 400 l 2
 60 703 167 980 470 1050 c 1
EndSplineSet
EndChar

StartChar: plus
Encoding: 43 43 166
Width: 740
VWidth: 0
Flags: W
HStem: 280 130<80 290 450 660>
VStem: 290 160<65 280 410 625>
LayerCount: 2
Fore
SplineSet
290 625 m 1
 450 625 l 1
 450 410 l 1
 660 410 l 1
 660 280 l 1
 450 280 l 1
 450 65 l 1
 290 65 l 1
 290 280 l 1
 80 280 l 1
 80 410 l 1
 290 410 l 1
 290 625 l 1
EndSplineSet
EndChar

StartChar: comma
Encoding: 44 44 167
Width: 360
VWidth: 0
Flags: W
HStem: -150 350<154.751 194.929>
LayerCount: 2
Fore
SplineSet
180 200 m 0
 236 200 280 156 280 100 c 0
 280 -11 204 -125 170 -150 c 5
 90 -150 l 1
 115 -126 154 -74 154 3 c 1
 111 15 80 53 80 100 c 0
 80 156 124 200 180 200 c 0
EndSplineSet
EndChar

StartChar: zero
Encoding: 48 48 168
Width: 660
Flags: W
HStem: -18 140<263.694 401.901> 738 140<258.099 401.901>
VStem: 50 170<165.582 700.159> 440 170<159.841 700.159>
LayerCount: 2
Fore
SplineSet
330 878 m 0
 487 878 610 753 610 598 c 2
 610 262 l 2
 610 107 487 -18 330 -18 c 0
 173 -18 50 107 50 262 c 2
 50 598 l 2
 50 753 173 878 330 878 c 0
330 738 m 0
 243 738 220 677 220 578 c 2
 220 282 l 2
 220 183 253 122 330 122 c 0
 417 122 440 183 440 282 c 2
 440 578 l 2
 440 677 417 738 330 738 c 0
EndSplineSet
EndChar

StartChar: one
Encoding: 49 49 169
Width: 660
Flags: W
HStem: 0 140<90 290 470 630> 560 120<60 162.427> 840 20G<280 470>
VStem: 290 180<140 653>
LayerCount: 2
Fore
SplineSet
280 860 m 1
 470 860 l 1
 470 140 l 1
 630 140 l 1
 630 0 l 1
 90 0 l 1
 90 140 l 1
 290 140 l 1
 290 653 l 1
 233 572 168 560 60 560 c 1
 60 680 l 1
 176 680 280 776 280 860 c 1
EndSplineSet
EndChar

StartChar: two
Encoding: 50 50 170
Width: 660
Flags: W
HStem: 0 140<275 615> 738 140<254.129 389.42>
VStem: 45 170<598 694.418> 430 170<518.863 692.858>
LayerCount: 2
Fore
SplineSet
325 878 m 0
 482 878 600 763 600 608 c 0
 600 496 519 398 478 352 c 1
 275 140 l 1
 615 140 l 1
 615 0 l 1
 55 0 l 1
 55 140 l 1
 275 364 l 1
 319 413 430 513 430 598 c 0
 430 677 393 738 325 738 c 0
 257 738 215 687 215 598 c 1
 45 598 l 1
 45 753 168 878 325 878 c 0
EndSplineSet
EndChar

StartChar: three
Encoding: 51 51 171
Width: 660
Flags: W
HStem: -18 140<248.172 401.828> 380 130<195 389.708> 748 130<255.63 394.37>
VStem: 435 170<544.336 706.56> 445 170<161.665 324.154>
LayerCount: 2
Fore
SplineSet
325 878 m 0xf0
 473 878 605 772 605 628 c 0xf0
 605 516 536 469 490 445 c 1
 556 410 615 355 615 232 c 0
 615 88 491 -18 325 -18 c 0
 159 -18 35 88 35 232 c 1
 205 232 l 1
 205 166 257 122 325 122 c 0
 393 122 445 166 445 232 c 0xe8
 445 314 400 380 300 380 c 2
 195 380 l 1
 195 510 l 1
 325 510 l 2
 398 510 435 557 435 628 c 0
 435 694 393 748 325 748 c 0
 257 748 215 694 215 628 c 1
 45 628 l 1
 45 772 177 878 325 878 c 0xf0
EndSplineSet
EndChar

StartChar: four
Encoding: 52 52 172
Width: 660
Flags: W
HStem: 0 21G<370 530> 180 140<200 370 530 640> 840 20G<348.667 530>
VStem: 370 160<0 180 320 630>
LayerCount: 2
Fore
SplineSet
530 320 m 1
 640 320 l 1
 640 180 l 1
 530 180 l 1
 530 0 l 1
 370 0 l 1
 370 180 l 1
 20 180 l 1
 20 260 l 1
 360 860 l 1
 530 860 l 1
 530 320 l 1
200 320 m 1
 370 320 l 1
 370 630 l 1
 200 320 l 1
EndSplineSet
EndChar

StartChar: five
Encoding: 53 53 173
Width: 660
Flags: W
HStem: -18 140<257.198 396.271> 412 130<263.768 399.696> 730 130<245 570>
VStem: 440 170<165.171 366.344>
LayerCount: 2
Fore
SplineSet
130 860 m 1
 570 860 l 1
 570 730 l 1
 245 730 l 1
 208 458 l 1
 227 501 267 542 350 542 c 0
 507 542 610 417 610 262 c 0
 610 107 487 -18 330 -18 c 0
 153 -18 50 96 40 230 c 1
 210 230 l 1
 227 155 272 122 330 122 c 0
 402 122 440 183 440 262 c 0
 440 351 405 412 330 412 c 0
 276 412 242 369 225 335 c 1
 55 380 l 1
 130 860 l 1
EndSplineSet
EndChar

StartChar: six
Encoding: 54 54 174
Width: 660
Flags: W
HStem: -18 140<259.461 401.191> 402 140<260.59 400.131> 738 140<259.461 400.756>
VStem: 50 170<165.582 361.625 475 694.418> 440 170<163.979 360.021 598 694.418>
LayerCount: 2
Fore
SplineSet
330 -18 m 0
 173 -18 50 107 50 262 c 2
 50 598 l 2
 50 753 173 878 330 878 c 0
 487 878 610 753 610 598 c 1
 440 598 l 1
 440 677 407 738 330 738 c 0
 254 738 220 677 220 598 c 2
 220 475 l 1
 251 515 282 542 350 542 c 0
 507 542 610 417 610 262 c 0
 610 107 487 -18 330 -18 c 0
330 122 m 0
 409 122 440 183 440 262 c 0
 440 341 407 402 330 402 c 0
 252 402 220 341 220 262 c 0
 220 183 254 122 330 122 c 0
EndSplineSet
EndChar

StartChar: eight
Encoding: 56 56 175
Width: 660
Flags: W
HStem: -18 140<249.972 410.243> 383 130<254.141 407.506> 748 130<255.525 400.142>
VStem: 30 170<171.323 330.054> 50 165<551.381 705.34> 445 165<550.389 704.282> 460 170<171.323 330.912>
LayerCount: 2
Fore
SplineSet
330 878 m 4xe8
 478 878 610 784 610 640 c 0xec
 610 557 551 480 490 455 c 1
 551 430 630 361 630 230 c 0
 630 86 507 -18 330 -18 c 0
 153 -18 30 86 30 230 c 0xf2
 30 349 109 430 170 455 c 1
 109 480 50 557 50 640 c 0
 50 784 182 878 330 878 c 4xe8
330 748 m 0
 268 748 215 705 215 630 c 0
 215 565 255 513 330 513 c 0
 404 513 445 560 445 630 c 0
 445 700 392 748 330 748 c 0
330 383 m 0
 250 383 200 319 200 250 c 0
 200 179 250 122 330 122 c 0
 411 122 460 179 460 250 c 0xf2
 460 321 410 383 330 383 c 0
EndSplineSet
EndChar

StartChar: nine
Encoding: 57 57 176
Width: 660
Flags: W
HStem: -18 140<259.244 400.539> 318 140<259.869 399.41> 738 140<258.809 400.539>
VStem: 50 170<165.582 262 499.979 696.021> 440 170<165.582 385 498.375 694.418>
LayerCount: 2
Fore
SplineSet
330 878 m 0
 487 878 610 753 610 598 c 2
 610 262 l 2
 610 107 487 -18 330 -18 c 0
 173 -18 50 107 50 262 c 1
 220 262 l 1
 220 183 253 122 330 122 c 0
 406 122 440 183 440 262 c 2
 440 385 l 1
 409 345 378 318 310 318 c 0
 153 318 50 443 50 598 c 0
 50 753 173 878 330 878 c 0
330 738 m 0
 251 738 220 677 220 598 c 0
 220 519 253 458 330 458 c 0
 408 458 440 519 440 598 c 0
 440 677 406 738 330 738 c 0
EndSplineSet
EndChar

StartChar: less
Encoding: 60 60 178
Width: 640
VWidth: 0
Flags: W
LayerCount: 2
Fore
SplineSet
70 305 m 1
 70 385 l 1
 570 630 l 1
 570 480 l 1
 280 345 l 1
 570 210 l 1
 570 60 l 1
 70 305 l 1
EndSplineSet
EndChar

StartChar: question
Encoding: 63 63 181
Width: 690
VWidth: 0
Flags: W
HStem: -18 200<277.456 412.544> 738 140<278.934 420.01>
VStem: 70 170<580 693.976> 245 200<14.4561 149.544> 262 158<280 363.493> 450 170<553.944 706.77>
LayerCount: 2
Fore
SplineSet
445 82 m 0xf4
 445 26 401 -18 345 -18 c 0
 289 -18 245 26 245 82 c 0
 245 138 289 182 345 182 c 0
 401 182 445 138 445 82 c 0xf4
350 878 m 0
 528 878 620 745 620 630 c 0
 620 442 420 437 420 280 c 1
 262 280 l 1xec
 262 510 450 493 450 630 c 0
 450 676 429 738 350 738 c 0
 271 738 240 679 240 580 c 1
 70 580 l 1
 70 756 172 878 350 878 c 0
EndSplineSet
EndChar

StartChar: at
Encoding: 64 64 182
Width: 1400
VWidth: 0
Flags: W
HStem: -340 130<563.201 1000> -18 130<609.71 782.218 1016.92 1110.23> 488 130<609.71 780.918> 580 20G<856 1006> 830 130<562.285 870.099>
VStem: 60 150<145.422 474.578> 370 150<203.6 396.4> 856 150<188.469 411.531 520 600> 1190 150<212.468 516.864>
LayerCount: 2
Back
SplineSet
700 960 m 4xcfc0
 1059 960 1350 679 1350 310 c 4
 1350 -2 1133 -120 1016 -120 c 4xcfc0
 891 -120 846 -25 846 50 c 6
 846 80 l 5
 830 43 762 -18 668 -18 c 4
 482 -18 360 124 360 300 c 4
 360 476 482 618 668 618 c 4xb7c0
 762 618 830 557 846 520 c 5
 846 600 l 5
 996 600 l 5
 996 100 l 6
 996 20 1009 10 1050 10 c 4
 1091 10 1200 108 1200 310 c 4
 1200 607 976 830 700 830 c 4
 424 830 200 597 200 310 c 4
 200 23 424 -210 700 -210 c 6
 800 -210 l 5
 800 -340 l 5
 700 -340 l 6
 341 -340 50 -49 50 310 c 4
 50 669 341 960 700 960 c 4xcfc0
688 488 m 4xb7c0
 595 488 510 414 510 300 c 4
 510 186 595 112 688 112 c 4
 777 112 846 185 846 280 c 6
 846 320 l 6
 846 415 777 488 688 488 c 4xb7c0
EndSplineSet
Fore
SplineSet
710 960 m 0xdf80
 1056 960 1340 726 1340 350 c 0
 1340 72 1157 -18 1040 -18 c 0
 961 -18 896 28 896 120 c 1
 880 83 823 -18 678 -18 c 0
 492 -18 370 124 370 300 c 0
 370 476 492 618 678 618 c 0xef80
 772 618 840 557 856 520 c 1
 856 600 l 1
 1006 600 l 1
 1006 230 l 2
 1006 172 1007 112 1050 112 c 0
 1104 112 1190 186 1190 350 c 0
 1190 652 971 830 710 830 c 0
 434 830 210 597 210 310 c 0
 210 23 434 -210 710 -210 c 2
 1000 -210 l 1
 1000 -340 l 1
 710 -340 l 2
 351 -340 60 -49 60 310 c 0
 60 669 351 960 710 960 c 0xdf80
698 488 m 0
 605 488 520 414 520 300 c 0
 520 186 605 112 698 112 c 0
 787 112 856 185 856 280 c 2
 856 320 l 2
 856 415 787 488 698 488 c 0
EndSplineSet
EndChar

StartChar: bracketleft
Encoding: 91 91 183
Width: 460
VWidth: 0
Flags: W
HStem: -340 120<220 400> 930 120<220 400>
VStem: 60 340<-340 -220 930 1050> 60 160<-220 930>
LayerCount: 2
Fore
SplineSet
60 1050 m 1xe0
 400 1050 l 1
 400 930 l 1xe0
 220 930 l 1
 220 -220 l 1xd0
 400 -220 l 5
 400 -340 l 1
 60 -340 l 1
 60 1050 l 1xe0
EndSplineSet
EndChar

StartChar: asciicircum
Encoding: 94 94 185
Width: 600
VWidth: 0
Flags: W
HStem: 840 20G<231.304 368.696>
LayerCount: 2
Fore
SplineSet
240 860 m 1
 360 860 l 1
 560 400 l 1
 410 400 l 1
 300 670 l 1
 190 400 l 1
 40 400 l 1
 240 860 l 1
EndSplineSet
EndChar

StartChar: grave
Encoding: 96 96 187
Width: 240
VWidth: 0
Flags: W
HStem: 780 180
VStem: -20 260
LayerCount: 2
Fore
SplineSet
-20 960 m 1
 120 960 l 1
 240 780 l 1
 120 780 l 1
 -20 960 l 1
EndSplineSet
EndChar

StartChar: braceleft
Encoding: 123 123 188
Width: 580
VWidth: 0
Flags: W
HStem: -340 120<355.418 520> 930 120<355.418 520>
VStem: 180 160<-205.857 274.455 435.545 915.857>
LayerCount: 2
Fore
SplineSet
360 1050 m 2
 520 1050 l 1
 520 930 l 1
 400 930 l 2
 364 930 340 892 340 860 c 2
 340 500 l 2
 340 383 230 355 230 355 c 1
 230 355 340 327 340 210 c 2
 340 -150 l 2
 340 -182 364 -220 400 -220 c 2
 520 -220 l 5
 520 -340 l 1
 360 -340 l 2
 262 -340 180 -276 180 -190 c 2
 180 210 l 2
 180 277 99 325 60 345 c 1
 60 365 l 1
 99 385 180 433 180 500 c 2
 180 900 l 2
 180 986 262 1050 360 1050 c 2
EndSplineSet
EndChar

StartChar: asciitilde
Encoding: 126 126 190
Width: 640
VWidth: 0
Flags: W
HStem: 230 130<351.801 506.343> 310 130<109.479 280.492>
LayerCount: 2
Fore
SplineSet
60 370 m 1x40
 101 417 143 440 203 440 c 0x40
 309 440 353 360 428 360 c 0
 483 360 522 369 560 410 c 1
 560 298 l 1
 514 254 470 230 417 230 c 0x80
 321 230 290 310 193 310 c 0
 133 310 100 298 60 260 c 0
 60 370 l 1x40
EndSplineSet
EndChar

StartChar: Euro
Encoding: 8364 8364 196
Width: 660
Flags: W
HStem: -18 120<460.219 620> 290 100<30 120 300 530> 470 100<30 120 300 530> 758 120<460.219 620>
VStem: 120 175<238.244 290 390 470 570 621.756>
LayerCount: 2
Fore
SplineSet
620 878 m 5
 620 758 l 5
 492 758 327 719 300 570 c 5
 530 570 l 5
 530 470 l 5
 295 470 l 5
 295 390 l 5
 530 390 l 5
 530 290 l 5
 300 290 l 5
 327 141 492 102 620 102 c 5
 620 -18 l 5
 417 -18 148 57 123 290 c 5
 30 290 l 5
 30 390 l 5
 120 390 l 5
 120 470 l 5
 30 470 l 5
 30 570 l 5
 123 570 l 5
 148 803 417 878 620 878 c 5
EndSplineSet
EndChar

StartChar: yen
Encoding: 165 165 197
Width: 660
Flags: W
HStem: 0 21G<240 420> 160 100<50 240 420 610> 340 100<50 234 426 610> 840 20G<20 218.276 441.724 640>
VStem: 240 180<0 160 260 340>
LayerCount: 2
Fore
SplineSet
20 860 m 1
 210 860 l 1
 330 570 l 1
 450 860 l 5
 640 860 l 5
 426 440 l 1
 610 440 l 1
 610 340 l 1
 420 340 l 1
 420 260 l 1
 610 260 l 1
 610 160 l 1
 420 160 l 1
 420 0 l 1
 240 0 l 1
 240 160 l 1
 50 160 l 1
 50 260 l 1
 240 260 l 1
 240 340 l 1
 50 340 l 1
 50 440 l 1
 234 440 l 1
 20 860 l 1
EndSplineSet
EndChar

StartChar: sterling
Encoding: 163 163 198
Width: 660
Flags: W
HStem: 0 140<235 630> 360 100<30 120 295 520> 748 130<312.897 413.862>
VStem: 120 170<205.074 360 460 727.391> 430 169<650 734.772>
LayerCount: 2
Fore
SplineSet
295 360 m 1
 295 259 282 209 235 140 c 1
 630 140 l 1
 630 0 l 1
 30 0 l 1
 30 140 l 1
 124 204 122 273 125 360 c 1
 30 360 l 1
 30 460 l 1
 120 460 l 1
 120 620 l 1
 121 779 214 878 360 878 c 0
 506 878 599 767 599 650 c 1
 430 650 l 1
 430 703 420 748 360 748 c 0
 300 748 291 681 290 610 c 5
 290 460 l 1
 520 460 l 1
 520 360 l 1
 295 360 l 1
EndSplineSet
EndChar

StartChar: cent
Encoding: 162 162 199
Width: 660
Flags: W
HStem: -80 322<285.583 393.946> 618 322<285.583 393.946>
VStem: 50 150<313.05 546.95> 285 110<-80 122.352 737.648 940>
LayerCount: 2
Fore
SplineSet
285 940 m 1
 395 940 l 1
 395 742 l 1
 508.441 721.652 582.31 639.896 610 530 c 5
 449 530 l 5
 430 583 400 618 340 618 c 0
 247 618 200 534 200 430 c 0
 200 326 247 242 340 242 c 0
 400 242 430 277 449 330 c 5
 610 330 l 5
 582.31 220.104 508.441 138.348 395 118 c 1
 395 -80 l 1
 285 -80 l 1
 285 118 l 1
 138.72 144.193 50 272.972 50 430 c 0
 50 587.028 138.72 715.807 285 742 c 1
 285 940 l 1
EndSplineSet
EndChar

StartChar: copyright
Encoding: 169 169 200
Width: 1400
Flags: W
HStem: -240 130<552.285 847.715> 50 140<600.593 803.266> 630 140<600.593 803.266> 930 130<552.285 847.715>
VStem: 50 150<245.422 574.578> 340 150<303.197 516.803> 1200 150<245.422 574.578>
LayerCount: 2
Fore
SplineSet
700 1060 m 4
 1059 1060 1350 769 1350 410 c 4
 1350 51 1059 -240 700 -240 c 4
 341 -240 50 51 50 410 c 4
 50 769 341 1060 700 1060 c 4
700 930 m 4
 424 930 200 697 200 410 c 4
 200 123 424 -110 700 -110 c 4
 976 -110 1200 123 1200 410 c 4
 1200 697 976 930 700 930 c 4
700 770 m 4
 880 770 1012 651 1050 500 c 5
 890 500 l 5
 860 573 801 630 700 630 c 4
 583 630 490 536 490 410 c 4
 490 284 583 190 700 190 c 4
 801 190 860 247 890 320 c 5
 1050 320 l 5
 1012 169 880 50 700 50 c 4
 502 50 340 212 340 410 c 4
 340 608 502 770 700 770 c 4
EndSplineSet
EndChar

StartChar: registered
Encoding: 174 174 201
Width: 560
Flags: W
HStem: 480 48<191.853 368.147> 600 21G<195 245 318.75 390> 680 40<245 285> 800 40<245 328.236> 912 48<191.853 368.147>
VStem: 40 55<625.419 814.581> 195 50<600 680 720 800> 335 50<723.287 795.956> 465 55<625.419 814.581>
LayerCount: 2
Fore
SplineSet
280 960 m 0
 413 960 520 853 520 720 c 0
 520 587 413 480 280 480 c 0
 147 480 40 587 40 720 c 0
 40 853 147 960 280 960 c 0
280 912 m 0
 178 912 95 826 95 720 c 0
 95 614 178 528 280 528 c 0
 382 528 465 614 465 720 c 0
 465 826 382 912 280 912 c 0
195 840 m 1
 295 840 l 2
 356 840 385 802 385 760 c 0
 385 729 366 701 335 690 c 1
 390 600 l 1
 330 600 l 1
 285 680 l 1
 245 680 l 1
 245 600 l 1
 195 600 l 1
 195 840 l 1
245 800 m 1
 245 720 l 1
 290 720 l 2
 322 720 335 738 335 760 c 0
 335 782 320 800 290 800 c 2
 245 800 l 1
EndSplineSet
EndChar

StartChar: acute
Encoding: 180 180 204
Width: 240
VWidth: 0
Flags: W
HStem: 780 180
VStem: -20 260
LayerCount: 2
Fore
SplineSet
240 960 m 1
 100 780 l 1
 -20 780 l 1
 100 960 l 1
 240 960 l 1
EndSplineSet
EndChar

StartChar: brokenbar
Encoding: 166 166 206
Width: 320
Flags: W
HStem: 920 20G<80 240>
VStem: 80 160<-340 210 390 940>
LayerCount: 2
Fore
SplineSet
80 -340 m 1
 80 210 l 1
 240 210 l 1
 240 -340 l 1
 80 -340 l 1
240 390 m 1
 80 390 l 1
 80 940 l 1
 240 940 l 1
 240 390 l 1
EndSplineSet
EndChar

StartChar: section
Encoding: 167 167 207
Width: 850
Flags: W
HStem: -340 140<330.444 551.729> 738 140<312.567 518.469>
VStem: 70 170<234.022 352.899 553.5 673.42> 620 170<-138.722 -11.6962 180.863 310.644>
LayerCount: 2
Fore
SplineSet
415 878 m 0
 644 878 770 724 770 590 c 1
 590 590 l 1
 590 670 533 738 415 738 c 0
 308 738 240 672 240 610 c 0
 240 544 310 519 425 505 c 0
 634 479 790 428 790 250 c 0
 790 178 768 122 729 80 c 1
 768 44 790 -5 790 -72 c 0
 790 -259 639 -340 435 -340 c 0
 228 -340 60 -235 60 -32 c 1
 240 -32 l 1
 240 -143 342 -200 435 -200 c 0
 526 -200 620 -159 620 -72 c 0
 620 5 535 39 385 53 c 0
 220 69 70 119 70 288 c 0
 70 341 94 401 142 451 c 1
 98 487 70 537 70 610 c 0
 70 725 186 878 415 878 c 0
303 386 m 1
 263 361 240 324 240 288 c 0
 240 222 310 197 425 183 c 0
 477 177 525 169 568 158 c 1
 599 179 620 209 620 250 c 0
 620 327 535 361 385 375 c 0
 357 378 330 381 303 386 c 1
EndSplineSet
EndChar

StartChar: endash
Encoding: 8211 8211 209
Width: 740
VWidth: 0
Flags: W
HStem: 280 130<80 660>
LayerCount: 2
Fore
SplineSet
80 410 m 1
 660 410 l 1
 660 280 l 1
 80 280 l 1
 80 410 l 1
EndSplineSet
EndChar

StartChar: guilsinglleft
Encoding: 8249 8249 210
Width: 450
Flags: W
VStem: 70 310
LayerCount: 2
Fore
SplineSet
210 320 m 1
 380 90 l 1
 250 90 l 1
 70 315 l 1
 70 325 l 1
 250 550 l 1
 380 550 l 1
 210 320 l 1
EndSplineSet
EndChar

StartChar: trademark
Encoding: 8482 8482 213
Width: 700
VWidth: 0
Flags: W
HStem: 616 21G<114 182 308 376 451.492 516.508 592 660> 904 56<40 114 182 256>
VStem: 114 68<616 904> 308 68<616 868> 592 68<616 868>
LayerCount: 2
Fore
SplineSet
458 616 m 1
 376 868 l 1
 376 616 l 1
 308 616 l 1
 308 960 l 1
 404 960 l 1
 484 712 l 1
 564 960 l 1
 660 960 l 1
 660 616 l 1
 592 616 l 1
 592 868 l 1
 510 616 l 1
 458 616 l 1
40 960 m 1
 256 960 l 1
 256 904 l 1
 182 904 l 1
 182 616 l 1
 114 616 l 1
 114 904 l 1
 40 904 l 1
 40 960 l 1
EndSplineSet
EndChar

StartChar: emdash
Encoding: 8212 8212 214
Width: 1020
VWidth: 0
Flags: W
HStem: 280 130<80 940>
LayerCount: 2
Fore
SplineSet
80 410 m 1
 940 410 l 1
 940 280 l 1
 80 280 l 1
 80 410 l 1
EndSplineSet
EndChar

StartChar: ordfeminine
Encoding: 170 170 215
Width: 390
VWidth: 0
Flags: W
HStem: 551 65<137.891 257.284> 804 65<137.891 257.284> 840 20G<279 354>
VStem: 36 75<643.833 776.167> 279 75<560 600 637.259 782.741 820 860>
LayerCount: 2
Fore
SplineSet
354 560 m 1xb8
 279 560 l 1
 279 600 l 1
 271 582 237 551 190 551 c 0
 97 551 36 622 36 710 c 0
 36 798 97 869 190 869 c 0xd8
 237 869 271 838 279 820 c 1
 279 860 l 1
 354 860 l 1
 354 560 l 1xb8
200 804 m 0
 154 804 111 767 111 710 c 0
 111 653 154 616 200 616 c 0
 244 616 279 652 279 700 c 2
 279 720 l 2
 279 768 244 804 200 804 c 0
EndSplineSet
EndChar

StartChar: degree
Encoding: 176 176 217
Width: 330
VWidth: 0
Flags: W
HStem: 670 80<115.017 195.597> 840 80<115.017 195.597>
VStem: 30 80<754.667 835.333> 200 80<754.437 835.563>
LayerCount: 2
Fore
SplineSet
156 920 m 0
 224 920 280 864 280 795 c 0
 280 726 224 670 156 670 c 0
 86 670 30 726 30 795 c 0
 30 864 86 920 156 920 c 0
156 840 m 0
 131 840 110 820 110 795 c 0
 110 770 131 750 156 750 c 0
 180 750 200 770 200 795 c 0
 200 820 180 840 156 840 c 0
EndSplineSet
EndChar

StartChar: uni00B2
Encoding: 178 178 219
Width: 360
Flags: W
HStem: 590 70<152 322> 958 70<132.335 220.073>
VStem: 38 84<888 948.992> 230 85<829.669 950.512>
LayerCount: 2
Fore
SplineSet
178 1028 m 0
 256 1028 315 971 315 894 c 0
 315 838 274 788 254 766 c 1
 152 660 l 1
 322 660 l 1
 322 590 l 1
 42 590 l 1
 42 660 l 1
 152 772 l 1
 174 796 230 846 230 888 c 0
 230 928 212 958 178 958 c 0
 144 958 122 933 122 888 c 1
 38 888 l 1
 38 966 99 1028 178 1028 c 0
EndSplineSet
EndChar

StartChar: uni00B3
Encoding: 179 179 220
Width: 360
Flags: W
HStem: 590 70<128.73 231.27> 789 65<115 225.891> 973 65<135.259 224.741>
VStem: 35 85<670.833 715 913 960.056> 240 85<669.767 774.965 864.301 960.548>
LayerCount: 2
Fore
SplineSet
180 1038 m 0
 254 1038 320 985 320 913 c 0
 320 857 286 834 262 822 c 1
 296 804 325 776 325 715 c 0
 325 643 263 590 180 590 c 0
 97 590 35 643 35 715 c 1
 120 715 l 1
 120 682 146 660 180 660 c 0
 214 660 240 682 240 715 c 0
 240 756 218 789 168 789 c 2
 115 789 l 1
 115 854 l 1
 180 854 l 2
 216 854 235 878 235 913 c 0
 235 946 214 973 180 973 c 0
 146 973 125 946 125 913 c 1
 40 913 l 1
 40 985 106 1038 180 1038 c 0
EndSplineSet
EndChar

StartChar: uni00B5
Encoding: 181 181 221
Width: 780
VWidth: 0
Flags: W
HStem: -18 130<309.737 470.263> 0 21G<540 700> 580 20G<80 240 540 700>
VStem: 80 160<-340 70 191.215 600> 540 160<0 70 191.215 600>
LayerCount: 2
Fore
SplineSet
80 600 m 1xb8
 240 600 l 1
 240 320 l 2
 240 158 321 112 390 112 c 0xb8
 459 112 540 158 540 320 c 2
 540 600 l 1
 700 600 l 1
 700 0 l 1
 540 0 l 1x78
 540 70 l 1
 524 34 473 -18 390 -18 c 4
 307 -18 256 34 240 70 c 1
 240 -340 l 1
 80 -340 l 1
 80 600 l 1xb8
EndSplineSet
EndChar

StartChar: paragraph
Encoding: 182 182 222
Width: 890
VWidth: 0
Flags: W
HStem: 0 21G<290 450 570 730> 720 140<450 570 730 830>
VStem: 290 160<0 707> 570 160<0 720>
LayerCount: 2
Fore
SplineSet
350 860 m 6
 830 860 l 5
 830 720 l 1
 730 720 l 1
 730 0 l 1
 570 0 l 1
 570 720 l 1
 450 720 l 1
 450 0 l 1
 290 0 l 1
 290 707 l 1
 231 685 200 637 200 580 c 1
 30 580 l 1
 30 731 129 860 350 860 c 6
EndSplineSet
EndChar

StartChar: uni00B9
Encoding: 185 185 224
Width: 360
Flags: W
HStem: 590 70<58 158 248 328> 870 60<42 114.533>
VStem: 158 90<660 916 973.066 1020>
LayerCount: 2
Fore
SplineSet
152 1020 m 1
 248 1020 l 1
 248 660 l 1
 328 660 l 1
 328 590 l 1
 58 590 l 1
 58 660 l 1
 158 660 l 1
 158 916 l 1
 129 876 96 870 42 870 c 1
 42 930 l 1
 100 930 152 978 152 1020 c 1
EndSplineSet
EndChar

StartChar: ordmasculine
Encoding: 186 186 225
Width: 390
VWidth: 0
Flags: W
HStem: 551 65<136.716 253.284> 804 65<136.716 253.284>
VStem: 36 75<643.205 776.795> 279 75<643.205 776.795>
LayerCount: 2
Fore
SplineSet
195 869 m 0
 283 869 354 798 354 710 c 0
 354 622 283 551 195 551 c 0
 107 551 36 622 36 710 c 0
 36 798 107 869 195 869 c 0
195 804 m 0
 148 804 111 762 111 710 c 0
 111 658 148 616 195 616 c 0
 242 616 279 658 279 710 c 0
 279 762 242 804 195 804 c 0
EndSplineSet
EndChar

StartChar: florin
Encoding: 402 402 227
Width: 460
VWidth: 0
Flags: W
HStem: -340 160<30 108.42> 480 120<40 150 310 420> 780 160<351.58 430>
VStem: 150 160<-131.765 480 600 731.765>
LayerCount: 2
Fore
SplineSet
430 940 m 1
 430 780 l 1
 364 780 310 744 310 640 c 2
 310 600 l 1
 420 600 l 1
 420 480 l 1
 310 480 l 1
 310 307 310 133 310 -40 c 0
 310 -256 192 -340 30 -340 c 1
 30 -180 l 1
 96 -180 150 -144 150 -40 c 0
 150 133 150 307 150 480 c 1
 40 480 l 1
 40 600 l 1
 150 600 l 1
 150 640 l 2
 150 856 268 940 430 940 c 1
EndSplineSet
EndChar

StartChar: dagger
Encoding: 8224 8224 228
Width: 620
VWidth: 0
Flags: W
HStem: 500 100<60 250 370 560> 840 20G<250 370>
VStem: 250 120<-340 500 600 860>
LayerCount: 2
Fore
SplineSet
370 860 m 1
 370 600 l 1
 560 600 l 1
 560 500 l 1
 370 500 l 1
 370 -340 l 1
 250 -340 l 1
 250 500 l 1
 60 500 l 1
 60 600 l 1
 250 600 l 1
 250 860 l 1
 370 860 l 1
EndSplineSet
EndChar

StartChar: bullet
Encoding: 8226 8226 229
Width: 360
VWidth: 0
Flags: W
HStem: 200 250<97.4187 252.581>
VStem: 50 250<247.419 402.581>
LayerCount: 2
Fore
SplineSet
300 325 m 0
 300 255 245 200 175 200 c 0
 105 200 50 255 50 325 c 0
 50 395 105 450 175 450 c 0
 245 450 300 395 300 325 c 0
EndSplineSet
EndChar

StartChar: perthousand
Encoding: 8240 8240 232
Width: 1460
VWidth: 0
Flags: W
HStem: 0 105<676.17 803.83 1136.17 1263.83> 295 105<676.17 803.83 1136.17 1263.83> 460 105<196.17 323.83> 755 105<196.17 323.83>
VStem: 60 105<596.17 723.83> 355 105<596.17 723.83> 540 105<136.17 263.83> 835 105<136.17 263.83> 1000 105<136.17 263.83> 1295 105<136.17 263.83>
LayerCount: 2
Fore
SplineSet
1200 400 m 0
 1310 400 1400 310 1400 200 c 0
 1400 90 1310 0 1200 0 c 0
 1090 0 1000 90 1000 200 c 0
 1000 310 1090 400 1200 400 c 0
1200 295 m 0
 1148 295 1105 252 1105 200 c 0
 1105 148 1148 105 1200 105 c 0
 1252 105 1295 148 1295 200 c 0
 1295 252 1252 295 1200 295 c 0
EndSplineSet
Refer: 161 37 N 1 0 0 1 0 0 2
EndChar

StartChar: uni0E34.left
Encoding: 63233 63233 233
Width: 0
VWidth: 0
Flags: W
HStem: 730 120<-690 -280>
LayerCount: 2
Fore
SplineSet
-690 850 m 1
 -280 850 l 1
 -280 730 l 1
 -690 730 l 1
 -690 850 l 1
EndSplineSet
EndChar

StartChar: uni0E35.left
Encoding: 63234 63234 234
Width: 0
VWidth: 0
Flags: W
HStem: 710 210<-420 -280> 710 110<-690 -420>
VStem: -420 140<820 920>
LayerCount: 2
Fore
SplineSet
-690 820 m 1x60
 -490 820 l 1
 -420 820 l 1x60
 -420 920 l 1
 -280 920 l 1
 -280 710 l 1xa0
 -690 710 l 1
 -690 820 l 1x60
EndSplineSet
EndChar

StartChar: uni0E36.left
Encoding: 63235 63235 235
Width: 0
VWidth: 0
Flags: W
HStem: 710 110<-710 -490> 710 70<-417.563 -344.624> 860 70<-416.66 -343.531>
VStem: -490 70<820 855.249> -340 70<783.531 856.469>
LayerCount: 2
Fore
SplineSet
-380 930 m 0xb8
 -319 930 -270 881 -270 820 c 0xb8
 -270 759 -319 710 -380 710 c 2x78
 -710 710 l 1
 -710 820 l 1
 -580 820 l 1
 -490 820 l 1
 -490 830 l 1
 -485 886 -437 930 -380 930 c 0xb8
-380 860 m 0
 -402 860 -420 842 -420 820 c 0xb8
 -420 798 -402 780 -380 780 c 0x78
 -358 780 -340 798 -340 820 c 0
 -340 842 -358 860 -380 860 c 0
EndSplineSet
EndChar

StartChar: uni0E37.left
Encoding: 63236 63236 236
Width: 0
VWidth: 0
Flags: W
HStem: 710 210<-560 -440 -390 -270> 710 110<-710 -560>
VStem: -560 120<820 920> -390 120<710 920>
LayerCount: 2
Fore
SplineSet
-560 920 m 1xb0
 -440 920 l 1
 -440 710 l 1xb0
 -710 710 l 1
 -710 820 l 1
 -600 820 l 1
 -560 820 l 1x70
 -560 920 l 1xb0
-390 920 m 1
 -270 920 l 1
 -270 710 l 1
 -390 710 l 1
 -390 920 l 1
EndSplineSet
EndChar

StartChar: uni0E31.left
Encoding: 63248 63248 237
Width: 0
VWidth: 0
Flags: W
HStem: 700 100<-534.502 -398.035> 850 60<-550 -510>
VStem: -370 130<830.204 900>
LayerCount: 2
Back
SplineSet
-680 900 m 5
 -550 900 l 5
 -550 840 -512 800 -460 800 c 4
 -408 800 -370 840 -370 900 c 5
 -240 900 l 5
 -257 747 -359 700 -460 700 c 4
 -561 700 -663 747 -680 900 c 5
EndSplineSet
Fore
SplineSet
-680 910 m 1
 -510 910 l 5
 -510 850 l 5
 -550 850 l 1
 -538 816 -501 800 -460 800 c 0
 -408 800 -370 840 -370 900 c 1
 -240 900 l 1
 -257 747 -359 700 -460 700 c 0
 -561 700 -663 747 -680 900 c 1
 -680 910 l 1
EndSplineSet
EndChar

StartChar: uni0E47.left
Encoding: 63250 63250 238
Width: 0
VWidth: 0
Flags: W
HStem: 700 160<-420 -300> 905 90<-588.518 -365.72>
VStem: -720 120<770 891.414> -420 120<770 860> -350 120<1008.36 1070>
LayerCount: 2
Fore
SplineSet
-350 1070 m 1xe8
 -230 1070 l 1xe8
 -230 985 -278 905 -370 905 c 2
 -530 905 l 2
 -578 905 -600 879 -600 840 c 2
 -600 770 l 1
 -515 865 l 1
 -430 770 l 1
 -420 770 l 1
 -420 860 l 1
 -300 860 l 1
 -300 700 l 1xf0
 -465 700 l 1
 -515 760 l 1
 -565 700 l 1
 -720 700 l 1
 -720 840 l 2
 -720 930 -632 995 -550 995 c 2
 -410 995 l 2
 -367 995 -350 1031 -350 1070 c 1xe8
EndSplineSet
EndChar
